<?xml version="1.0" encoding="UTF-8"?>
<!-- Generator: Adobe Illustrator 18.0.0, SVG Export Plug-In . SVG Version: 6.00 Build 0)  -->
<!DOCTYPE svg PUBLIC "-//W3C//DTD SVG 1.1//EN" "http://www.w3.org/Graphics/SVG/1.1/DTD/svg11.dtd">
<svg version="1.1" id="Layer_1" xmlns="http://www.w3.org/2000/svg" xmlns:xlink="http://www.w3.org/1999/xlink" x="0px" y="0px" viewBox="0 0 94 158" style="enable-background:new 0 0 94 158;" xml:space="preserve">
<polygon id="point" style="fill:#9E3825;" points="47.7529,145.7127 46.9999,146.1487 46.2459,145.7127 14.1889,127.2047   14.1889,136.8857 46.9999,155.8257 79.8109,136.8857 79.8109,127.2047 "/>
<polygon id="banner" style="fill:#9E3825;" points="2.5387,2.1735 2.5387,117.9816 46.9997,143.6525 91.4616,117.9816   91.4616,2.1735 "/>
<path id="overlay" style="fill:#D2B024;" d="M76.9984,9.3565l-0.318,0.212l0.177-7.395h1.836l-0.144,6.031h-0.021  c-0.188-0.004-0.194,0.245-0.448,0.365c-0.252,0.118,0,0-0.251,0.057c-0.252,0.055,0,0-0.375-0.01l-0.194,0.246l-0.128,0.185  C77.0013,9.2315,76.9984,9.3565,76.9984,9.3565z M91.4614,17.5655v-6.173c-0.035,1.45-0.097,4.029-0.114,4.734  C91.3353,16.6875,91.4013,17.0955,91.4614,17.5655z M91.4614,2.1735v3.807l-1.019,0.208l-0.274,11.394l-1.58,4.042l0.087,6.676  c0,0-0.506,0.484-0.277,1.23c0.229,0.746,0.235,0.5-0.288,1.725c-0.524,1.221,0.006-0.249-0.524,1.221  c-0.387,1.077-1.567,2.132-2.1721,2.622l0.23-9.632l-0.137,0.083l-0.201,0.2401c0,0-0.001,0.053-0.111,0.258l-0.1089,0.206  l-0.2111,0.1l-0.263,0.045l-0.16,0.204c0,0-0.212,0.153-0.164,0.31c0.048,0.158-0.009,0.365-0.009,0.365l-0.007,0.261l-0.113,0.413  l-0.106,0.045l-0.284,11.867l0.265-0.177c0,0,0.003-0.103,0.11-0.258l0.108-0.154l0.161-0.205c0.214,0.005,0.186,0.028,0.212,0.028  l-0.157,6.53l2.05-0.419c0.002-0.143,0.006-0.2939,0.01-0.461c0.023-0.95-0.159-1.33-0.14-2.091  c0.017-0.756,0.104-4.357,0.104-4.357l1.549-1.291l0.205-0.7531l0.809-0.77l0.582-0.119l0.125-5.231l0.553-2.285l1.1461-2.844v4.054  l-0.019,0.022c0,0-0.335,0.24-0.258,0.49c0.076,0.25-0.014,0.578-0.014,0.578l-0.011,0.412l-0.181,0.653l-0.165,0.072l-0.452,18.777  l0.42-0.28c0,0,0.004-0.163,0.175-0.408l0.171-0.244l0.255-0.324c0.032,0.001,0.053,0.003,0.079,0.004v33.434l-0.082,0.103  l-0.13,0.1851c-0.13,0.186-0.132,0.309-0.132,0.309l-0.318,0.211l0.108-4.497l-4.724,0.963c0.868,2.077,1.192,4.36,0.952,6.798  c-0.242,2.4109-2.366,6.4-3.396,7.6819c-0.9,1.119-3.876,4.048-6.854,5.47c-0.559,0.267-1.135,0.407-1.665,0.407  c-0.261,0-0.511-0.036-0.746-0.105c-0.096-0.027-0.1591-0.035-0.2061-0.037c-0.022,0.025-0.062,0.083-0.1089,0.193  c-0.109,0.252-1.1281,2.839-1.734,4.393l-0.877,2.243l-2.513,6.419l0.33-6.884l1.0099-21.144l-0.246,0.313  c0,0-0.184,0.136-0.326,0.33l0.161-6.718l0.421-1.739l0.126-0.312c-6.417-3.231-14.83-5.154-23.525-5.181  c-4.375,0.014-8.672,0.519-12.685,1.419l-0.015,2.352l0.118-0.022l0.44-0.218l0.221-0.435c0.221-0.438,0.222-0.545,0.222-0.545  l0.414-0.513l0.284-0.177l-0.041,6.603l-5.742,1.277l-0.558,0.553l-0.135,0.529l-1.073,0.927c0,0-0.016,2.528-0.019,3.063  c-0.003,0.5309,0.129,0.797,0.124,1.464c-0.003,0.664-0.006,1.067-0.006,1.067l0.257,1.599l-0.813,2.124l-0.274,1.223l-0.056,9.028  l1.33-0.297l-0.029,4.706l0.336-0.232c0,0,0-0.134,0.137-0.335l0.134-0.199l0.204-0.269c0.402,0.003,0.133,0.069,0.402,0.003  c0.268-0.064-0.001,0.068,0.268-0.064c0.269-0.132,0.272-0.401,0.472-0.399h0.024l0.022-3.649l2.484-0.554l0.005-0.697l0.269-0.118  l0.2791-1.084l0.005-0.676c0,0,0.137-0.542,0.006-0.95c-0.135-0.408,0.41-0.811,0.41-0.811l0.409-0.542l0.681-0.128l0.544-0.269  l0.273-0.541c0.277-0.541,0.277-0.676,0.277-0.676l0.512-0.634l0.352-0.22l-0.039,6.46l0.367-0.08c0-0.122,0.002-0.2371,0.002-0.345  c0.005-0.799,0.137-0.532,0.137-0.532s1.068-0.791,1.342-1.59c0.271-0.795,0,0,0.27-0.663c0.269-0.665,0.269-0.533,0.136-0.932  c-0.128-0.398,0.139-0.664,0.139-0.664l-0.111-3.597l0.813-2.1899l0.014-2.0681l0.676-0.15c0.006-0.115,0.004-0.243-0.035-0.359  c-0.091-0.283,0.285-0.564,0.285-0.564l0.285-0.374l0.473-0.092l0.377-0.186l0.191-0.376c0.19-0.376,0.192-0.468,0.192-0.468  l0.355-0.44l0.244-0.152l-0.15,23.9449h-0.03c-0.284-0.001-0.285,0.375-0.664,0.561c-0.376,0.185,0,0-0.376,0.092  c-0.3781,0.091,0,0-0.565-0.004l-0.285,0.374c0,0-0.006,0.009-0.105,0.155l0.067,2.218c0,0-0.39,0.3849-0.199,0.968  c0.189,0.583,0.19,0.388-0.202,1.356c-0.395,0.97,0-0.194-0.395,0.97c-0.024,0.074-0.067,0.149-0.104,0.224l4.183-0.93  c-0.002,0.392-0.004,0.721-0.006,0.884c-0.003,0.61,0.147,0.912,0.143,1.672c-0.005,0.759-0.008,1.216-0.008,1.216l0.293,1.824  l-0.927,2.423l-0.313,1.395l-0.064,10.298l4.324-0.963l0.148,4.838c0,0-0.391,0.385-0.2,0.97c0.191,0.584,0.192,0.388-0.201,1.357  c-0.396,0.966,0-0.195-0.396,0.966c-0.191,0.566-0.658,1.125-1.087,1.555l-15.504-8.95l0.149-0.663l1.182-3.098l-0.373-2.329  c0,0,0.003-0.583,0.01-1.554c0.007-0.969-0.185-1.358-0.181-2.136c0.004-0.587,0.017-2.847,0.025-3.906l-1.476,0.329l-0.024,3.936  l-0.896,2.414l0.1219,3.959c0,0-0.295,0.29-0.15,0.733c0.144,0.439,0.145,0.293-0.152,1.024c-0.043,0.103-0.072,0.169-0.093,0.218  l-12.09-6.981l0.357-0.933l-0.282-1.761c0,0,0.002-0.441,0.008-1.173c0.004-0.732-0.142-1.027-0.138-1.613  c0.002-0.28,0.007-1.061,0.011-1.799l-4.664,1.038l0.009-1.506c-0.417,0.469-0.875,0.808-0.875,0.808s-0.144-0.293-0.15,0.586  c0,0.119-0.002,0.248-0.002,0.379l-3.337,0.742l-2.577-1.487l2.3539-0.525c0.001-0.121,0.001-0.236,0.002-0.345  c0.005-0.797,0.136-0.53,0.136-0.53s1.07-0.792,1.341-1.59c0.273-0.796,0,0,0.272-0.664c0.268-0.664,0.268-0.531,0.138-0.929  c-0.13-0.402,0.136-0.666,0.136-0.666l-0.11-3.597l0.812-2.193l0.038-5.796c-0.04,0.035-0.077,0.072-0.133,0.098  c-0.331,0.161,0,0-0.33,0.08c-0.329,0.08,0,0-0.493-0.004l-0.249,0.329l-0.166,0.246c-0.166,0.244-0.167,0.408-0.167,0.408  l-0.412,0.287l0.04-6.3311l-1.616,0.36l0.069-11.052c-0.037-0.159-0.069-0.316-0.095-0.466l-0.116,0.073l-0.313,0.385  c0,0,0,0.083-0.168,0.41l-0.166,0.33l-0.33,0.164l-0.415,0.079l-0.248,0.33c0,0-0.332,0.244-0.251,0.492  c0.08,0.249-0.0031,0.577-0.0031,0.577l-0.003,0.412l-0.17,0.659l-0.165,0.073l-0.051,8.074l-1.988,0.442v-31.846l2.983-0.664  l-0.079,12.414l0.526-0.362c0,0,0.001-0.209,0.213-0.521l0.21-0.311l0.315-0.416c0.627,0.004,0.209,0.106,0.627,0.004  c0.418-0.102-0.001,0.104,0.418-0.102c0.419-0.206,0.422-0.624,0.735-0.621h0.035l0.067-10.767l0.117-0.027l-0.142-0.387l0.19-0.421  l0.065-0.1429c0.566-1.261,3.493-7.635,5.56-9.3311l0.505-0.414l1.449-1.185l0.375,1.833l0.131,0.638  c0.461,2.226,1.223,4.342,1.705,5.2c0.461,0.814,0.87,0.814,1.024,0.814c0.36,0,0.704-0.182,0.795-0.234  c0.341-0.241,1.136-1.702,0.773-3.15c-0.116-0.461-0.202-1.012-0.286-1.557c-0.242-1.515-0.572-3.59-1.663-5.581l-0.133-0.244  l-0.38-0.699l0.531-0.594l0.177-0.198c0.052-0.059,5.192-5.898,8.341-7.683l0.532-0.303l1.533-0.87l0.152,1.756l0.053,0.612  c0.479,5.459,0.912,9.507,1.479,11.512c0.262,0.934,0.863,2.5,1.916,2.5c0.108,0,0.224-0.013,0.345-0.04  c1.547-0.326,2.342-3.049,2.103-4.658c-0.066-0.448-0.1281-1.072-0.199-1.796l-0.025-0.239c-0.27-2.805-0.837-8.643-2.406-10.32  l-0.448-0.475l-1.279-1.364l1.8-0.501l0.629-0.175c1.549-0.429,8.206-4.648,12.212-7.362l0.219-0.15l0.639-0.438l0.638,0.435  l0.208,0.143l0.03,0.021h0.003c2.877,1.927,6.114,4,8.586,5.461l0.023-0.928l0.224-0.094l0.245-0.885l0.013-0.556  c0,0,0.122-0.442,0.019-0.7791c-0.103-0.338,0.35-0.662,0.35-0.662l0.344-0.437l0.56-0.097l0.45-0.212l0.233-0.44  c0.057-0.106,0.099-0.191,0.13-0.261l-0.019-0.146c0,0,0.012-0.5081,0.032-1.351c0.02-0.845-0.141-1.185-0.125-1.863  c0.005-0.217,0.016-0.692,0.029-1.24l-5.874,1.2l0.252-10.485l-0.137,0.083l-0.201,0.24c0,0-0.002,0.053-0.112,0.257l-0.108,0.207  l-0.211,0.1l-0.263,0.046l-0.16,0.205c0,0-0.212,0.149-0.163,0.308c0.047,0.159-0.01,0.366-0.01,0.366l-0.007,0.2599l-0.114,0.414  l-0.106,0.043l-0.197,8.27l-1.539,0.313l0.348-14.529l0.476-1.961l1.368-3.396l-0.367-2.5811c0,0,0.015-0.646,0.041-1.715  c0.022-0.883-0.112-1.335-0.148-1.945h11.08l-0.061,2.54l0.423-0.282c0,0,0.004-0.166,0.178-0.413l0.173-0.246l0.258-0.327  c0.499,0.013,0.164,0.088,0.499,0.013c0.335-0.076-0.001,0.082,0.335-0.076c0.338-0.159,0.347-0.494,0.596-0.485h0.028l0.018-0.724  h0.982l-0.156,6.469l0.265-0.176c0,0,0.003-0.102,0.111-0.257l0.109-0.155l0.161-0.205c0.311,0.008,0.102,0.055,0.311,0.008  c0.21-0.046,0,0.053,0.21-0.046c0.211-0.1,0.216-0.309,0.372-0.305h0.019l0.128-5.333h8.35l-0.093,0.336l-0.99,0.827  c0,0-0.055,2.3-0.067,2.785c-0.012,0.484,0.104,0.729,0.09,1.335c-0.014,0.605-0.023,0.97-0.023,0.97l0.206,1.459l-0.771,1.921  l-0.271,1.107l-0.091,3.84l0.118-0.428l0.008-0.312c0,0,0.068-0.249,0.009-0.437c-0.058-0.19,0.197-0.37,0.197-0.37l0.192-0.246  l0.317-0.055l0.252-0.12l0.13-0.247c0.132-0.247,0.133-0.309,0.133-0.309l0.242-0.287l0.164-0.101l-0.166,6.938l7.556-1.541  c0.002-0.108,0.005-0.213,0.007-0.314c0.017-0.726,0.134-0.48,0.134-0.48s0.985-0.703,1.245-1.427c0.259-0.72,0,0,0.258-0.598  c0.256-0.6,0.2531-0.479,0.139-0.8459c-0.111-0.364,0.137-0.6021,0.137-0.6021l-0.043-3.274l0.775-1.981l0.181-7.543H91.4614z   M66.8314,40.8295l0.4189-0.28c0,0,0.0031-0.165,0.175-0.408l0.172-0.244l0.254-0.324c0.495,0.013,0.163,0.087,0.495,0.013  c0.331-0.075-0.002,0.082,0.331-0.075c0.335-0.158,0.342-0.488,0.591-0.481c0.009,0,0.018,0.002,0.028,0.002l0.503-20.983  l-0.218,0.132l-0.3181,0.379c0,0-0.002,0.082-0.175,0.407l-0.173,0.327l-0.333,0.158l-0.416,0.071l-0.254,0.325  c0,0-0.337,0.24-0.26,0.489c0.076,0.249-0.013,0.577-0.013,0.577l-0.01,0.412l-0.182,0.655l-0.167,0.07L66.8314,40.8295z   M60.5583,52.3825c-0.416,0.093,0,0-0.62-0.014l-0.319,0.405l-0.214,0.305c-0.0421,0.0601-0.071,0.113-0.098,0.165l-0.092,3.846  c0.2939,0.384,0.641,0.667,1.053,0.753c0.118,0.027,0.238,0.04,0.343,0.04c1.053,0,1.654-1.566,1.917-2.5  c0.57-2.009,1.002-6.055,1.4789-11.512l0.054-0.612l0.15-1.7531l0.563,0.3181l0.145-6.066l-0.137,0.082l-0.202,0.24  c0,0-0.001,0.051-0.11,0.258l-0.109,0.206l-0.212,0.099l-0.262,0.046l-0.16,0.205c0,0-0.212,0.151-0.164,0.31  c0.048,0.155-0.009,0.3651-0.009,0.3651l-0.007,0.259l-0.113,0.415l-0.107,0.043l-0.22,9.224l-1.269,0.26l-0.095,3.92  c-0.012,0-0.022-0.002-0.033-0.002c-0.311-0.007-0.32,0.405-0.738,0.603C60.5563,52.4865,60.9724,52.2905,60.5583,52.3825z   M12.8454,96.5655c-0.501-0.431-0.947-0.848-1.341-1.2339l0.0569,1.8329l1.282-0.285L12.8454,96.5655z M23.8174,110.0535  l-0.562-1.437l-0.004,0.589l-0.692,1.868l0.095,3.067c0,0-0.125,0.123-0.144,0.324l1.281-0.284L23.8174,110.0535z M25.2674,104.8085  l-0.687,0.152l0.054,1.139l0.015,0.3231L25.2674,104.8085z M86.075,84.479c-0.0109-0.5272-0.0613-1.0419-0.1324-1.5499  c-0.0042-0.0294-0.0037-0.0604-0.0081-0.0897c-0.1584-1.0745-0.4603-2.1004-0.8904-3.0773  c-0.0011-0.0025-0.0016-0.0051-0.0027-0.0076l-0.0002,0.0001c-0.0401-0.091-0.065-0.1877-0.1075-0.2778l-0.207-0.438  c-0.783-1.65-1.97-4.149-2.164-6.449c-0.167-2.033,0.25-3.0681,0.26-3.097l0.5439-1.4929l0.8497-2.3303l-0.067-0.147  c-0.1298-0.2921-3.1934-7.0823-5.1448-8.8227c-0.0328-0.0292-0.0677-0.0688-0.0999-0.0951l-0.505-0.414l0,0l-0.0003-0.0002  l-0.0473,0.2327l-0.0834,0.4075c-0.1393,0.6733-0.3052,1.3292-0.4819,1.9515c-0.4438,1.5624-0.962,2.8898-1.3475,3.5763  c-0.0024,0.0043-0.0052,0.0074-0.0076,0.0117c-0.1037,0.1832-0.2173,0.3368-0.3334,0.4835c-0.058,0.0713-0.1165,0.1409-0.1774,0.203  c-0.0448,0.0471-0.0926,0.0847-0.139,0.127c-0.1733,0.1522-0.3549,0.2791-0.5485,0.3679v0.0006  c-0.2516,0.115-0.5146,0.1936-0.8017,0.1936c-0.591,0-1.111-0.242-1.367-0.386c-0.7209-0.409-1.785-2.441-1.2939-4.408  c0.097-0.393,0.174-0.876,0.261-1.4351c0.255-1.602,0.601-3.797,1.788-5.961l0.134-0.244l-0.187-0.207  c-0.208-0.237-5.154-5.805-8.044-7.445l-0.537-0.304l-0.053,0.613c-0.101,1.1577-0.1989,2.2239-0.2962,3.2364  c-0.0422,0.4393-0.0842,0.8628-0.1263,1.275c-0.0103,0.1006-0.0206,0.198-0.0309,0.2969c-0.0403,0.3891-0.0807,0.7709-0.1213,1.1346  c-0.0072,0.0645-0.0145,0.1234-0.0217,0.1871c-0.0705,0.6227-0.1419,1.2004-0.2144,1.7459  c-0.0226,0.1703-0.0451,0.3471-0.0681,0.5097c-0.0287,0.2043-0.0583,0.3934-0.0876,0.5857  c-0.0297,0.1944-0.0596,0.3863-0.0899,0.5682c-0.0273,0.1644-0.0551,0.3231-0.083,0.4774c-0.0359,0.1976-0.0725,0.3842-0.1095,0.565  c-0.0245,0.1204-0.0489,0.2446-0.074,0.3574c-0.058,0.2604-0.1174,0.5035-0.1787,0.7242c-0.005,0.0181-0.0096,0.0403-0.0147,0.0581  c-0.429,1.517-1.297,3.3231-3.0049,3.3231c-0.183,0-0.38-0.022-0.578-0.064c-0.1819-0.0385-0.3517-0.0997-0.5145-0.1738  c-0.0267-0.0119-0.0524-0.0256-0.0786-0.0384c-0.1551-0.077-0.3043-0.1647-0.4439-0.2688  c-0.0001,0.0001-0.0002,0.0002-0.0003,0.0002c-1.4965-1.1136-2.066-3.7213-1.9473-5.477c0.616-9.022,1.917-12.004,2.904-12.916  l0.519-0.48l-0.682-0.191c-0.6804-0.1885-1.9941-0.8796-3.5242-1.7708c-0.1568-0.0914-0.3152-0.1842-0.4761-0.2794  c-0.1091-0.0645-0.2195-0.1304-0.3301-0.1965c-0.101-0.0604-0.2026-0.1213-0.3047-0.1829  c-0.1218-0.0734-0.2435-0.1465-0.3665-0.2212c-0.0089-0.0054-0.0178-0.0109-0.0267-0.0164  c-0.3104-0.1887-0.6239-0.3813-0.9377-0.5756c-0.0627-0.0388-0.1253-0.0775-0.188-0.1165  c-0.5083-0.3157-1.0158-0.6348-1.5101-0.9486c-0.006-0.0038-0.0123-0.0077-0.0183-0.0115  c-2.6161-1.6613-4.8596-3.1688-4.9073-3.2006l-0.015-0.0101l-0.2063-0.1391l-0.2191,0.149  c-1.2097,0.8197-3.5521,2.3679-5.9202,3.8521c-0.6321,0.3962-1.2622,0.785-1.8769,1.1568  c-2.0664,1.2499-3.9196,2.2806-4.7529,2.5111l-0.1828,0.051l-0.4438,0.1232l0.0005,0.0005l-0.0009,0.0002l0.447,0.476  c1.83,1.956,2.381,7.609,2.708,10.986c0.082,0.824,0.149,1.512,0.216,1.981c0.0507,0.3383,0.0631,0.7108,0.0449,1.097  c-0.0343,0.7271-0.1902,1.5047-0.4666,2.2249c-0.486,1.2664-1.3403,2.3453-2.5634,2.6051c-0.201,0.042-0.397,0.064-0.581,0.064  c-1.704,0-2.576-1.806-3.004-3.3231c-0.5215-1.8483-0.9275-5.2775-1.3497-9.8623c-0.0554-0.6017-0.1108-1.2188-0.167-1.8594  l-0.054-0.613l-0.0002,0.0002l-0.0001-0.0004l-0.533,0.304c-2.892,1.64-7.84,7.2079-8.047,7.4449l-0.186,0.207l0.0244,0.0447  l0.1079,0.1995c0.4572,0.8317,0.7879,1.6672,1.0386,2.4725c0.4009,1.2891,0.5942,2.4996,0.7511,3.4843  c0.0379,0.2448,0.0736,0.4678,0.1102,0.6819c0.0125,0.0727,0.0264,0.1414,0.0391,0.2104c0.0358,0.1944,0.072,0.383,0.1136,0.5468  c0.0615,0.246,0.0986,0.493,0.1151,0.7377c0.1148,1.7125-0.7813,3.3135-1.4148,3.6705c-0.254,0.144-0.768,0.386-1.364,0.386  c-0.5648,0-1.0573-0.2393-1.4832-0.6854c-0.187-0.1962-0.3651-0.4203-0.5241-0.7018c-0.54-0.96-1.34-3.167-1.829-5.528l-0.131-0.64  l-0.0006,0.0005l-0.0001-0.0002l-0.5049,0.414c-0.3831,0.3143-0.8145,0.8445-1.2603,1.4884  c-1.2444,1.7968-2.6041,4.5073-3.3712,6.1138c-0.3517,0.7363-0.5795,1.2409-0.6135,1.3158l-0.0374,0.0845l-0.0279,0.0622  l0.034,0.095l0.0008-0.0002l1.3655,3.7454c0.0013,0.0054,0.0879,0.2337,0.1664,0.6608c0.0344,0.1876,0.0654,0.4133,0.0887,0.6818  c0.0402,0.4633,0.0539,1.038-0.0041,1.7404c-0.0033,0.0395-0.012,0.0798-0.0159,0.1194c-0.0261,0.2643-0.0611,0.5303-0.1108,0.7977  c-0.0167,0.0905-0.0408,0.1812-0.0599,0.2719c-0.0476,0.2248-0.0966,0.4496-0.157,0.6739  c-0.0202,0.0753-0.0441,0.1497-0.0655,0.2248c-0.0711,0.2477-0.1453,0.4951-0.2278,0.7391  c-0.0133,0.0397-0.0276,0.0786-0.0413,0.118c-0.0985,0.2849-0.2017,0.5674-0.31,0.8429v0.0009  c-0.3892,0.992-0.822,1.9125-1.1757,2.6573l-0.206,0.438c-0.954,2.031-1.316,4.297-1.073,6.729c0.209,2.09,2.193,5.896,3.149,7.084  c0.0836,0.1041,0.1994,0.2331,0.3116,0.3593v0.0005c0.0018,0.002,0.0043,0.0045,0.0061,0.0065  c0.1612,0.181,0.3472,0.3785,0.5594,0.5941c0.0244,0.0249,0.0444,0.0467,0.0695,0.072c1.3214,1.329,3.4769,3.1547,5.5113,4.1277  c0.402,0.19,0.82,0.296,1.179,0.296c0.155,0,0.298-0.019,0.423-0.056c0.19-0.056,0.3719-0.086,0.535-0.086  c0.513,0,0.886,0.287,1.142,0.877c0.1559,0.36,1.733,4.391,1.75,4.429l0.6467,1.6541v0.0017l0.23,0.587v-0.0006l0.0003,0.0009  l-1.118-23.386l-0.392,0.014c-0.04,0.001-1.1089,0.048-3.112,1.003l-0.297,0.141l0.087,0.314c0.322,1.217,0.11,3.252-0.353,3.406  c-0.05,0.016-0.187,0.056-0.386,0.056c-0.557,0-1.609-0.307-2.417-2.359c-0.579-1.47-0.608-2.317-0.505-3.816  c4.1997-4.443,11.1951-7.8358,19.2967-9.6165v0.0003c1.954-0.4297,3.9736-0.7629,6.0325-0.9978  c0.1599-0.0181,0.3207-0.0331,0.4811-0.0499c0.8142-0.0864,1.6352-0.1537,2.4603-0.2074c0.2401-0.0154,0.4794-0.0333,0.7202-0.0458  c0.9763-0.0518,1.9573-0.086,2.9436-0.09c0.0119-0.0001,0.0237-0.0008,0.0356-0.0009c0.0114,0.0001,0.0226,0.0007,0.0339,0.0008  c0.9839,0.0038,1.9625,0.0385,2.9366,0.0892c0.283,0.0147,0.5643,0.0352,0.8463,0.0538c0.7546,0.0499,1.5053,0.1127,2.2508,0.1898  c0.2479,0.0256,0.4965,0.0485,0.7432,0.077c1.9877,0.2303,3.9358,0.5543,5.8237,0.9678c0.1523,0.0333,0.3027,0.069,0.4542,0.1035  c0.8682,0.1977,1.7247,0.4118,2.5643,0.6461c0.0789,0.022,0.1591,0.0424,0.2377,0.0647c1.9075,0.5417,3.735,1.1754,5.4569,1.8938  c0.0356,0.0149,0.0708,0.0302,0.1063,0.0452c0.8576,0.3604,1.6909,0.7402,2.4928,1.1414l0.0002-0.0005  c3.2282,1.6148,5.9883,3.5453,8.0591,5.7357c0.102,1.499,0.072,2.346-0.507,3.816c-0.808,2.052-1.858,2.359-2.415,2.359  c-0.201,0-0.338-0.04-0.389-0.056c-0.462-0.152-0.671-2.189-0.347-3.406l0.0829-0.314l-0.297-0.141  c-0.6559-0.3126-1.2005-0.5208-1.6523-0.6691v-0.0002c-0.002-0.0007-0.0034-0.001-0.0054-0.0016  c-0.1675-0.0549-0.3204-0.1016-0.4592-0.1395c-0.0022-0.0006-0.0046-0.0013-0.0068-0.0019c-0.6235-0.17-0.9648-0.1901-0.9883-0.1907  l-0.3929-0.014l-0.0811,1.6967l-0.0003,0.0001l-1.036,21.689l0.0004-0.0011l-0.0001,0.0013l0.877-2.243  c0.549-1.406,1.624-4.141,1.75-4.429c0.257-0.59,0.631-0.877,1.14-0.877c0.166,0,0.346,0.03,0.537,0.086  c0.0283,0.0083,0.0646,0.006,0.0943,0.0125c0.1031,0.0227,0.2072,0.0443,0.3274,0.0443c0.2407,0,0.5077-0.0625,0.7769-0.1506  c0.1346-0.0439,0.2698-0.0828,0.4025-0.1462c1.945-0.9292,3.9985-2.6376,5.3311-3.9473c0.0291-0.0286,0.0646-0.0605,0.093-0.0887  c0.0082-0.0081,0.0139-0.0146,0.0219-0.0227c0.4315-0.4298,0.7815-0.8124,1.0136-1.1005c0.0842-0.1049,0.1788-0.2366,0.2773-0.3794  c1.0156-1.4718,2.6833-4.799,2.873-6.7054c0.0092-0.0936,0.003-0.1826,0.0104-0.2757C86.059,85.4403,86.0861,84.9539,86.075,84.479z   M83.3453,47.3625l-0.056,2.3199h-0.032c-0.279-0.007-0.287,0.364-0.664,0.5421c-0.377,0.1769,0,0-0.375,0.084  c-0.374,0.084,0,0-0.557-0.012l-0.289,0.364l-0.193,0.275c-0.193,0.275-0.197,0.459-0.197,0.459l-0.471,0.316l0.091-3.789  l-2.588,0.529l-0.567,0.54l-0.144,0.528l-1.089,0.907c0,0-0.061,2.529-0.073,3.063c-0.013,0.532,0.113,0.8,0.097,1.467  c-0.014,0.664-0.024,1.065-0.024,1.065l0.227,1.605l-0.848,2.11l-0.297,1.215l-0.027,1.141c0.06-0.0829,0.122-0.176,0.184-0.288  c0.484-0.861,1.247-2.977,1.707-5.2l0.13-0.64l0.377-1.833l1.447,1.185l0.505,0.414c2.203,1.804,5.426,9.028,5.56,9.328l0.065,0.146  l0.191,0.421l-0.1591,0.432l-0.724,1.989l0.7-0.143c0.002-0.121,0.006-0.236,0.008-0.345c0.019-0.798,0.146-0.528,0.146-0.528  s1.083-0.774,1.368-1.566c0.287-0.792,0,0,0.284-0.662c0.282-0.657,0.279-0.525,0.153-0.926c-0.121-0.403,0.15-0.664,0.15-0.664  l-0.047-3.596l0.852-2.177l0.267-11.114L83.3453,47.3625z"/>
<path id="symbol" style="fill:#FFFFFF;" d="M71.6117,82.7667l0.3929,0.014c0.043,0.001,1.108,0.048,3.112,1.003l0.297,0.141  l-0.0829,0.314c-0.324,1.217-0.1151,3.254,0.347,3.406c0.051,0.016,0.188,0.056,0.389,0.056c0.557,0,1.607-0.307,2.415-2.359  c0.579-1.47,0.6089-2.317,0.507-3.816c-6.285-6.648-18.826-10.965-32.006-11.008c-13.157,0.043-25.686,4.36-31.97,11.008  c-0.103,1.499-0.074,2.346,0.505,3.816c0.808,2.052,1.86,2.359,2.417,2.359c0.199,0,0.336-0.04,0.386-0.056  c0.463-0.154,0.675-2.189,0.353-3.406l-0.087-0.314l0.297-0.141c2.003-0.955,3.072-1.002,3.112-1.003l0.392-0.014l1.118,23.386  l-0.877-2.243c-0.017-0.038-1.594-4.069-1.75-4.429c-0.256-0.59-0.629-0.877-1.142-0.877c-0.163,0-0.345,0.03-0.535,0.086  c-0.125,0.037-0.268,0.056-0.423,0.056c-0.359,0-0.777-0.106-1.179-0.296c-2.647-1.266-5.514-3.985-6.458-5.16  c-0.956-1.188-2.94-4.994-3.149-7.084c-0.243-2.432,0.119-4.698,1.073-6.729l0.206-0.438c0.785-1.653,1.972-4.151,2.164-6.446  c0.168-2.036-0.248-3.071-0.251-3.083l-1.4-3.84l0.065-0.147c0.135-0.297,3.303-7.325,5.245-8.918l0.505-0.414l0.131,0.64  c0.489,2.361,1.29,4.568,1.829,5.528c0.522,0.922,1.195,1.387,2.008,1.387c0.596,0,1.11-0.242,1.364-0.386  c0.724-0.408,1.791-2.441,1.3-4.408c-0.1-0.393-0.177-0.877-0.263-1.439c-0.255-1.6-0.601-3.794-1.79-5.957l-0.132-0.244  l0.186-0.207c0.207-0.237,5.154-5.805,8.047-7.445l0.533-0.304l0.054,0.613c0.484,5.523,0.927,9.631,1.516,11.722  c0.428,1.516,1.3,3.323,3.004,3.323c0.185,0,0.38-0.022,0.582-0.064c2.288-0.486,3.298-3.832,2.985-5.927  c-0.067-0.469-0.134-1.157-0.216-1.982c-0.327-3.377-0.878-9.029-2.708-10.985l-0.447-0.477l0.627-0.174  c2.009-0.556,9.931-5.746,12.55-7.52l0.219-0.149l0.221,0.149c0.102,0.068,10.211,6.861,12.59,7.52l0.682,0.191l-0.519,0.48  c-0.987,0.912-2.288,3.894-2.904,12.916c-0.143,2.116,0.709,5.477,2.985,5.958c0.198,0.042,0.394,0.064,0.578,0.064  c1.708,0,2.576-1.807,3.0049-3.323c0.593-2.093,1.02-6.038,1.5161-11.722l0.053-0.613l0.537,0.304  c2.89,1.64,7.836,7.208,8.044,7.445l0.187,0.207l-0.134,0.244c-1.187,2.164-1.533,4.359-1.788,5.961  c-0.087,0.559-0.164,1.0421-0.261,1.4351c-0.491,1.967,0.573,3.999,1.2939,4.408c0.256,0.144,0.776,0.386,1.367,0.386  c0.815,0,1.4901-0.465,2.008-1.387c0.539-0.96,1.34-3.164,1.829-5.528l0.131-0.64l0.505,0.414c1.944,1.593,5.112,8.621,5.244,8.918  l0.067,0.147l-1.3929,3.823c-0.01,0.029-0.427,1.064-0.26,3.097c0.194,2.3,1.381,4.799,2.164,6.449l0.207,0.438  c0.958,2.031,1.316,4.296,1.076,6.729c-0.208,2.091-2.197,5.899-3.15,7.084c-0.946,1.175-3.81,3.894-6.46,5.16  c-0.398,0.19-0.818,0.296-1.18,0.296c-0.154,0-0.295-0.019-0.421-0.056c-0.191-0.056-0.371-0.086-0.537-0.086  c-0.509,0-0.883,0.287-1.14,0.877c-0.126,0.288-1.201,3.0229-1.75,4.429l-0.877,2.243L71.6117,82.7667z"/>
</svg>