<?xml version="1.0" encoding="UTF-8"?>
<!-- Generator: Adobe Illustrator 18.0.0, SVG Export Plug-In . SVG Version: 6.00 Build 0)  -->
<!DOCTYPE svg PUBLIC "-//W3C//DTD SVG 1.1//EN" "http://www.w3.org/Graphics/SVG/1.1/DTD/svg11.dtd">
<svg version="1.1" id="Layer_1" xmlns="http://www.w3.org/2000/svg" xmlns:xlink="http://www.w3.org/1999/xlink" x="0px" y="0px" viewBox="0 0 94 158" style="enable-background:new 0 0 94 158;" xml:space="preserve">
<polygon id="point" style="fill:#7D868D;" points="47.7538,144.7133 46.9998,145.1463 46.2458,144.7133 14.1898,126.2033   14.1898,135.8843 46.9998,154.8263 79.8108,135.8843 79.8108,126.2033 "/>
<polygon id="banner" style="fill:#7D868D;" points="2.5391,2.1736 2.5391,116.9807 47.0001,142.6516 91.4611,116.9807   91.4611,2.1736 "/>
<path id="overlay" style="fill:#BBC9D5;" d="M17.1984,49.7363c-0.338-0.45-0.545-1.037-0.545-1.68c0-0.645,0.207-1.231,0.545-1.682  v-0.001c1.289-1.716,1.69-3.125,1.69-3.125s0.4,1.409,1.689,3.125v0.001c0.338,0.451,0.546,1.037,0.546,1.682  c0,0.643-0.208,1.23-0.546,1.68v0.001c-1.289,1.716-1.689,3.126-1.689,3.126s-0.401-1.41-1.69-3.126V49.7363z M2.5394,105.3553  v4.508c0.412-0.631,0.668-1.404,0.668-2.256C3.2074,106.7593,2.9514,105.9843,2.5394,105.3553 M7.6724,82.6363  c0,0-0.4,1.4109-1.69,3.125l0.003,0.002c-0.34,0.452-0.548,1.037-0.548,1.682c0,0.643,0.208,1.23,0.548,1.682h-0.003  c1.29,1.715,1.69,3.125,1.69,3.125s0.402-1.41,1.691-3.125h-0.002c0.34-0.452,0.546-1.039,0.546-1.682  c0-0.645-0.206-1.23-0.546-1.682l0.002-0.002C8.0744,84.0472,7.6724,82.6363,7.6724,82.6363 M6.0604,82.7712  c0.856-1.1349,1.374-2.613,1.374-4.232c0-1.617-0.518-3.096-1.374-4.231l0.002-0.002c-1.783-2.375-2.889-4.511-3.523-5.959v20.383  c0.634-1.445,1.74-3.582,3.523-5.957L6.0604,82.7712z M91.4604,116.9803v-2.623c-0.392,0.932-1.024,2.244-1.976,3.766  L91.4604,116.9803z M90.3764,98.3903l0.001-0.002c-0.217-0.291-0.372-0.644-0.449-1.031c-2.669,4.2271-3.562,7.3521-3.562,7.3521  s-1.3-4.573-5.481-10.139l0.003-0.004c-0.678-0.902-1.192-1.973-1.486-3.148c-1.552,2.959-2.538,5.349-3.1,6.859  c0.314,1.146,0.514,2.348,0.588,3.594c2.374-3.912,3.186-6.744,3.186-6.744s1.298,4.572,5.481,10.138l-0.002,0.002  c0.361,0.481,0.668,1.012,0.929,1.578c0.061-0.099,0.117-0.205,0.186-0.298v-0.002c1.89-2.514,2.4771-4.58,2.4771-4.58  s0.557,1.945,2.313,4.355v5.383c-1.756,2.414-2.313,4.357-2.313,4.357s-0.478-1.67-1.943-3.832  c-0.238,1.492-0.821,2.846-1.649,3.947l0.002,0.002c-1.863,2.481-3.15,4.758-4.01,6.528l-0.943,0.545l-1.384,0.798  c-0.715-1.654-1.929-4.074-3.857-6.812c0.395-0.996,0.621-2.1,0.621-3.266c0-1.98-0.634-3.779-1.676-5.17l0.004-0.002  c-3.961-5.267-5.19-9.597-5.19-9.597s-1.231,4.33-5.195,9.597l0.003,0.002c-1.039,1.391-1.674,3.19-1.674,5.17  c0,1.975,0.635,3.778,1.674,5.162l-0.003,0.006c3.964,5.268,5.195,9.598,5.195,9.598s1.156-4.045,4.808-9.074  c0.361,0.549,0.755,1.115,1.194,1.699l-0.003,0.004c0.859,1.141,1.382,2.621,1.396,4.244l-29.517,17.043l-11.564-6.678  c0.41-0.838,1.018-1.904,1.892-3.066l-0.002-0.004c0.526-0.699,0.845-1.609,0.845-2.607c0-1.002-0.319-1.909-0.845-2.612h0.002  c-2.002-2.662-2.623-4.849-2.623-4.849s-0.622,2.187-2.623,4.849c-0.32,0.426-0.549,0.934-0.691,1.485  c-1.307-2.373-1.767-3.995-1.767-3.995s-0.71,2.483-2.849,5.799l-12.311-7.107c0.283-0.477,0.623-0.996,1.032-1.539h-0.002  c0.45-0.6,0.723-1.379,0.723-2.233c0-0.855-0.273-1.632-0.723-2.234h0.002c-0.186-0.246-0.352-0.486-0.51-0.721  c3.33-5.996,4.502-10.115,4.502-10.115s0.497,1.744,1.757,4.607c0.289-0.722,0.66-1.392,1.106-1.988l-0.002-0.002  c0.651-0.867,1.225-1.705,1.741-2.51c-0.683-1.593-1.62-3.574-2.866-5.832c-0.305,0.948-0.754,1.817-1.317,2.569l0.003,0.002  c-4.183,5.566-5.483,10.138-5.483,10.138s-1.299-4.572-5.48-10.138l0.002-0.002c-1.101-1.465-1.77-3.369-1.77-5.457  c0-2.086,0.669-3.9901,1.77-5.453l-0.002-0.002c0.524-0.698,0.998-1.377,1.434-2.037c0.091,0.269,0.221,0.519,0.384,0.734  l-0.004,0.002c1.248,1.66,1.637,3.023,1.637,3.023s0.388-1.363,1.636-3.023l-0.004-0.002c0.328-0.436,0.53-1.004,0.53-1.627  s-0.202-1.189-0.53-1.629h0.004c-1.054-1.4-1.49-2.58-1.602-2.918c-0.13-0.664-0.226-1.342-0.276-2.037  c-0.932,1.41-1.237,2.4821-1.237,2.4821s-0.4-1.412-1.691-3.127h0.002c-0.339-0.451-0.546-1.037-0.546-1.681  c0-0.645,0.207-1.231,0.546-1.682l-0.002-0.002c1.291-1.715,1.691-3.123,1.691-3.123s0.357,1.229,1.449,2.783  c0.248-1.431,0.669-2.789,1.233-4.048c-0.857-1.797-2.17-4.155-4.108-6.733l0.004-0.004c-1.101-1.463-1.771-3.367-1.771-5.453  c0-2.087,0.67-3.992,1.771-5.454l-0.004-0.004c4.183-5.566,5.482-10.138,5.482-10.138s1.301,4.572,5.482,10.138l-0.004,0.004  c0.824,1.097,1.409,2.443,1.648,3.929c2.6-5.013,3.542-8.327,3.542-8.327s0.395,1.389,1.376,3.726  c0.255-0.447,0.525-0.877,0.827-1.277l-0.007-0.006c1.177-1.565,2.189-3.071,3.063-4.488c-0.568-1.11-0.961-2.351-1.143-3.676  c-0.976,1.454-1.297,2.571-1.297,2.571s-0.401-1.408-1.69-3.124l0.002-0.001c-0.34-0.45-0.548-1.038-0.548-1.683  c0-0.642,0.208-1.229,0.548-1.6801l-0.002-0.001c1.289-1.715,1.69-3.126,1.69-3.126s0.361,1.243,1.465,2.811  c0.336-1.517,0.96-2.896,1.796-4.071c-0.304-0.715-0.575-1.522-0.54-2.352l0.024-0.567l0.077-1.715l1.546,0.748l0.513,0.247  c0.206,0.1,0.451,0.189,0.707,0.272c3.554-5.522,4.738-9.656,4.738-9.656s0.883,3.086,3.412,7.484l0.175-0.267l0.647,0.572  c-0.027-0.305-0.081-0.675-0.169-1.118c-0.646-3.249,0.076-8.456,1.152-11.387c-0.657-0.606-1.05-1.486-0.703-2.477  c0.017-0.047,2.081-5.229,2.706-5.969l0.383-0.452l1.154-1.368l0.739,1.632l0.245,0.54c0.693,1.539,2.323,5.165,2.481,5.615  c0.394,1.115,0.087,2.103-0.289,2.603l-0.115,0.155l-0.136,0.184c0.706,2.145,1.216,5.239,1.227,7.959  c0.826-1.306,1.108-2.277,1.108-2.277s0.402,1.409,1.69,3.126v0.002c0.337,0.448,0.545,1.036,0.545,1.68  c0,0.642-0.208,1.229-0.545,1.68v0.002c-0.38,0.507-0.675,0.98-0.913,1.404c0.098,0.064,0.203,0.125,0.314,0.182  c0.191-0.478,0.271-0.758,0.271-0.758s0.116,0.39,0.381,1.024c0.047,0.016,0.099,0.029,0.148,0.043  c0.224-0.717,0.546-1.3781,0.97-1.943l-0.003-0.002c3.079-4.094,4.033-7.458,4.033-7.458s0.957,3.364,4.035,7.458l-0.002,0.002  c0.81,1.077,1.302,2.4789,1.302,4.016c0,1.535-0.492,2.936-1.302,4.014l0.002,0.001c-3.078,4.096-4.035,7.46-4.035,7.46  s-0.554-1.944-2.169-4.673c-0.145,0.339-0.314,0.663-0.526,0.946v0.001c-0.255,0.341-0.489,0.673-0.705,0.997  c0.135,0.183,0.263,0.365,0.403,0.551l-0.003,0.004c0.974,1.298,1.61,2.944,1.741,4.756c-0.127,0.394-0.712,2.038-2.179,3.986  l0.002,0.002c-0.443,0.589-0.713,1.353-0.713,2.196c0,0.837,0.27,1.606,0.713,2.192l-0.002,0.003  c0.449,0.597,0.811,1.161,1.107,1.674c0.575,0.118,1.218,0.318,1.821,0.697c0.343-0.671,0.82-1.487,1.485-2.371l-0.002-0.003  c0.442-0.586,0.713-1.355,0.713-2.192c0-0.843-0.271-1.607-0.713-2.196l0.002-0.002c-0.156-0.208-0.291-0.406-0.428-0.606  c2.16-3.306,2.874-5.8,2.874-5.8s0.956,3.362,4.034,7.46l-0.002,0.002c0.177,0.233,0.335,0.487,0.479,0.752  c0.233-0.342,0.457-0.68,0.678-1.016c-0.55-1.017-1.272-2.191-2.213-3.442l0.003-0.002c-0.748-0.995-1.202-2.287-1.202-3.705  c0-1.418,0.454-2.711,1.202-3.706l-0.003-0.001c2.841-3.781,3.725-6.885,3.725-6.885s0.883,3.104,3.724,6.885l-0.003,0.001  c0.144,0.192,0.265,0.402,0.386,0.613c1.273-2.887,1.775-4.646,1.775-4.646s1.421,4.992,5.578,11.986  c-0.533,1.121-1.353,2.594-2.564,4.209v0.002c-0.683,0.912-1.1,2.096-1.1,3.396c0,0.704,0.131,1.372,0.352,1.983  c-0.242,0.514-0.617,1.1949-1.181,1.9449l0.001,0.002c-0.31,0.414-0.5,0.953-0.5,1.547c0,0.59,0.19,1.131,0.5,1.545h-0.001  c1.186,1.5779,1.555,2.875,1.555,2.875s0.369-1.2971,1.554-2.875h-0.002c0.239-0.3181,0.404-0.713,0.47-1.148  c1.311,2.246,1.764,3.835,1.764,3.835s0.809-2.847,3.413-6.314h-0.001c0.624-0.832,1.008-1.896,1.075-3.061  c1.414,2.219,2.339,4.879,2.569,7.774c-0.192,0.572-0.885,2.396-2.497,4.541h0.001c-0.512,0.686-0.826,1.572-0.826,2.547  c0,0.972,0.314,1.861,0.826,2.543l-0.001,0.004c1.951,2.593,2.558,4.728,2.558,4.728s0.278-0.974,1.058-2.404  c0.357,0.541,0.747,1.101,1.159,1.672v17.011C91.2154,99.6462,90.8683,99.0453,90.3764,98.3903 M61.9054,77.5073h0.002  c-0.947-1.257-1.435-2.347-1.652-2.912c-0.003,0.001-0.005,0.003-0.006,0.004c0.139,0.565,0.159,1.264-0.111,2.094  c-0.58,1.786-1.568,2.525-2.382,2.966c0.064,0.5421,0.257,1.036,0.553,1.431l-0.001,0.002c1.373,1.824,1.801,3.326,1.801,3.326  s0.425-1.502,1.798-3.326l-0.002-0.002c0.361-0.481,0.582-1.106,0.582-1.79C62.4874,78.6133,62.2664,77.9903,61.9054,77.5073   M39.0014,93.3243c-1.247-1.66-1.633-3.026-1.633-3.026s-0.388,1.366-1.636,3.026c-0.328,0.439-0.527,1.004-0.527,1.627  c0,0.621,0.199,1.191,0.527,1.627c1.248,1.662,1.636,3.025,1.636,3.025s0.386-1.363,1.633-3.025  c0.328-0.436,0.528-1.006,0.528-1.627C39.5294,94.3282,39.3294,93.7632,39.0014,93.3243 M33.8694,49.6072  c-0.197,0.26-0.353,0.56-0.464,0.887c-0.168,0.314-0.267,0.683-0.267,1.08c0,0.372,0.089,0.716,0.237,1.017  c0.112,0.366,0.278,0.703,0.494,0.991h-0.002c0.324,0.432,0.59,0.841,0.826,1.227c0.014,0.035,0.037,0.079,0.052,0.112  c-0.06,0.255-0.1,0.518-0.1,0.795c0,0.782,0.251,1.496,0.664,2.046l-0.001,0.002c0.824,1.096,1.345,2.08,1.659,2.777  c0.048,0,0.095,0.001,0.143,0.001c0.249,0,0.465-0.004,0.663-0.009c0.314-0.696,0.834-1.678,1.653-2.769l-0.001-0.002  c0.414-0.55,0.664-1.264,0.664-2.046c0-0.787-0.25-1.5-0.664-2.05h0.001c-0.389-0.519-0.712-1.014-0.976-1.466  c0.034-0.196,0.055-0.398,0.055-0.605c0-0.761-0.243-1.455-0.645-1.988l0.001-0.001c-1.523-2.028-1.996-3.693-1.996-3.693  s-0.234,0.792-0.867,1.942c-0.035-0.099-0.054-0.161-0.054-0.161s-0.087,0.304-0.314,0.786c-0.22,0.357-0.466,0.732-0.763,1.126  L33.8694,49.6072z M55.9304,50.1893c0-0.675-0.217-1.288-0.572-1.762h0.001c-0.032-0.043-0.058-0.083-0.089-0.126  c-0.81,1.514-1.103,2.535-1.103,2.535s-0.39-1.344-1.499-3.229l-0.019,5.575c0.702,1.189,0.944,2.034,0.944,2.034  s0.417-1.474,1.766-3.27h-0.001C55.7133,51.4763,55.9304,50.8603,55.9304,50.1893 M32.3134,36.6763  c-0.016,0.389,0.071,0.791,0.2,1.19c0.315-0.436,0.614-0.866,0.901-1.289c-0.194-0.071-0.397-0.138-0.565-0.219l-0.511-0.248  L32.3134,36.6763z M16.3794,60.7933c-0.404,0.537-0.649,1.236-0.649,2.002c0,0.767,0.245,1.466,0.649,2.003h-0.002  c1.538,2.045,2.014,3.725,2.014,3.725s0.478-1.68,2.013-3.725c0.403-0.537,0.649-1.236,0.649-2.003c0-0.766-0.246-1.465-0.649-2.002  v-0.002c-1.535-2.044-2.013-3.724-2.013-3.724s-0.476,1.68-2.014,3.724L16.3794,60.7933z M22.8824,78.1932l-0.003-0.002  c0.221-0.292,0.379-0.643,0.473-1.024c-0.964-1.084-2.195-2.033-3.714-2.863c-0.09,0.129-0.174,0.255-0.273,0.387h0.001  c-0.355,0.473-0.571,1.082-0.571,1.752c0,0.67,0.216,1.2791,0.571,1.748l-0.001,0.002c1.341,1.783,1.759,3.252,1.759,3.252  S21.5404,79.9763,22.8824,78.1932 M26.1984,124.8142c0.327-0.435,0.528-1.004,0.528-1.625c0-0.625-0.201-1.191-0.528-1.629h0.002  c-1.248-1.66-1.636-3.025-1.636-3.025s-0.389,1.365-1.635,3.025h0.001c-0.327,0.438-0.529,1.004-0.529,1.629  c0,0.621,0.202,1.19,0.529,1.625l-0.001,0.002c1.246,1.66,1.635,3.025,1.635,3.025s0.388-1.365,1.636-3.025L26.1984,124.8142z   M37.7704,83.8653l-0.001-0.004c0.603-0.802,1.026-1.782,1.219-2.86c-0.209-0.018-0.442-0.031-0.721-0.031  c-1.365,0-2.744,0.264-2.892,0.293l-0.424,0.086l-1.285,0.264l-0.072-1.309l-0.009-0.148c-1.511,0.298-3.602,1.002-5.053,1.922  c0.229,0.654,0.545,1.258,0.939,1.783l-0.002,0.004c3.167,4.213,4.151,7.676,4.151,7.676S34.6044,88.0782,37.7704,83.8653   M35.3544,110.1483v0.002c1.442,1.918,1.892,3.494,1.892,3.494s0.446-1.576,1.891-3.494l-0.002-0.002  c0.38-0.504,0.611-1.16,0.611-1.881c0-0.72-0.231-1.377-0.611-1.883h0.002c-1.445-1.919-1.891-3.498-1.891-3.498  s-0.45,1.579-1.892,3.498c-0.381,0.506-0.61,1.163-0.61,1.883C34.7444,108.9883,34.9734,109.6443,35.3544,110.1483   M42.1984,130.0172c0,0,0.641-2.243,2.561-5.267c-1.136-4.531-2.839-11.572-3.396-15.275c-0.447,1.027-1.24,2.579-2.538,4.306h0.001  c-0.375,0.502-0.644,1.098-0.806,1.75c-0.603,0.969-0.96,2.15-0.96,3.432c0,1.478,0.475,2.83,1.255,3.865l-0.003,0.004  C41.2774,126.7773,42.1984,130.0172,42.1984,130.0172 M61.9254,121.5472h0.002c-1.952-2.596-2.558-4.729-2.558-4.729  s-0.607,2.133-2.558,4.729h0.002c-0.513,0.685-0.826,1.572-0.826,2.544c0,0.975,0.313,1.864,0.826,2.545l-0.002,0.002  c1.951,2.596,2.558,4.729,2.558,4.729s0.606-2.133,2.558-4.729l-0.002-0.002c0.511-0.681,0.826-1.57,0.826-2.545  C62.7514,123.1193,62.4364,122.2322,61.9254,121.5472 M66.6463,99.1403c0.832-1.107,1.34-2.55,1.34-4.129  c0-1.582-0.508-3.021-1.34-4.132h0.002c-3.166-4.213-4.15-7.676-4.15-7.676s-0.985,3.463-4.151,7.676h0.002  c-0.832,1.111-1.341,2.55-1.341,4.132c0,1.579,0.509,3.022,1.341,4.129l-0.002,0.004c3.166,4.211,4.151,7.674,4.151,7.674  s0.984-3.463,4.15-7.674L66.6463,99.1403z M71.5243,52.8983c-0.517,0.687-0.8329,1.58-0.8329,2.562  c0,0.981,0.316,1.875,0.8329,2.563h-0.002c1.966,2.616,2.575,4.766,2.575,4.766s0.61-2.15,2.576-4.766h-0.001  c0.517-0.688,0.831-1.582,0.831-2.563c0-0.982-0.314-1.875-0.831-2.562l0.001-0.003c-1.966-2.614-2.576-4.762-2.576-4.762  s-0.6089,2.148-2.575,4.762L71.5243,52.8983z M69.5724,68.8433l-0.001,0.002c1.34,1.786,1.757,3.25,1.757,3.25  s0.415-1.464,1.757-3.25l-0.001-0.002c0.3521-0.466,0.566-1.078,0.566-1.746c0-0.67-0.214-1.2791-0.566-1.75h0.001  c-1.342-1.785-1.757-3.252-1.757-3.252s-0.417,1.467-1.757,3.252h0.001c-0.353,0.4709-0.571,1.08-0.571,1.75  C69.0014,67.7653,69.2193,68.3773,69.5724,68.8433 M78.2163,87.2753c0.518-0.687,0.833-1.584,0.833-2.562  c0-0.983-0.315-1.877-0.833-2.563l0.001-0.002c-1.9641-2.613-2.574-4.762-2.574-4.762s-0.487,1.707-1.983,3.928  c-0.099-0.324-0.245-0.625-0.437-0.883c-1.34-1.783-1.757-3.25-1.757-3.25s-0.417,1.467-1.759,3.25h0.002  c-0.351,0.471-0.566,1.082-0.566,1.752c0,0.668,0.215,1.278,0.566,1.748h-0.002c1.342,1.785,1.759,3.25,1.759,3.25  s0.219-0.748,0.825-1.818c0.104,0.723,0.379,1.381,0.779,1.912h-0.002c1.966,2.615,2.575,4.764,2.575,4.764s0.61-2.149,2.574-4.764  H78.2163z M11.2924,111.1873l0.002-0.002c-2.274-3.025-2.981-5.512-2.981-5.512s-0.705,2.487-2.979,5.512l0.001,0.002  c-0.598,0.795-0.962,1.83-0.962,2.965c0,0.117,0.02,0.23,0.027,0.346c-1.088-1.729-1.462-3.01-1.462-3.01s-0.116,0.391-0.399,1.029  v4.463l3.239,1.871c0.075-0.297,0.128-0.603,0.131-0.928c0.381,0.555,0.704,1.083,0.982,1.571l2.181,1.26  c0.468-0.975,1.178-2.247,2.222-3.637h-0.002c0.599-0.797,0.962-1.83,0.962-2.965S11.8914,111.9822,11.2924,111.1873   M85.1054,120.6502l0.3069-0.176c-0.081-0.228-0.1219-0.365-0.1219-0.365S85.2323,120.3062,85.1054,120.6502"/>
<path id="symbol" style="fill:#FFFFFF;" d="M60.6923,71.2012l-0.001-0.463c0-1.598-0.696-2.082-1.286-2.336  c0.255-0.248,0.429-0.584,0.512-0.998c0.269-1.31-0.455-3.139-1.07-3.637c-0.654-0.529-1.519-0.681-2.214-0.802  c-0.303-0.053-0.588-0.104-0.807-0.176l-0.295-0.094c-0.378-0.129-0.541-0.18-1.078-0.275c0.58-2.472-1.391-3.278-1.413-3.285  l-0.037-0.016l-1.506-0.232l0.045-12.305c-0.01-0.118-0.156-2.854,2.14-4.124l0.856-0.474l-0.954-0.218  c-2.168-0.491-2.793-0.671-2.793-1.4839c0-0.004,0.057-0.301,0.476-0.301c0.205,0,0.455,0.07,0.74,0.207  c1.079,0.5161,3.732,0.637,6.301,0.754c0.745,0.032,1.48,0.066,2.154,0.107l0.671,0.043l-0.319-0.592  c-0.089-0.162,0.247-0.888,0.447-1.32c0.365-0.787,0.777-1.676,0.74-2.504l-0.024-0.566l-0.512,0.248  c-1.094,0.529-2.775,0.858-4.387,0.858c-2.44,0-4.307-0.716-5.131-1.968l-0.237-0.362l-0.324,0.287  c-0.485,0.438-0.798,0.529-0.955,0.552c-0.272-0.433-0.469-1.355-0.078-3.32c0.615-3.107-0.144-8.434-1.238-11.121  c-0.06-0.146-0.072-0.2599-0.04-0.31c0.053-0.08,0.266-0.134,0.433-0.134l0.191,0.004l0.115-0.154  c0.171-0.228,0.392-0.812,0.129-1.554c-0.153-0.441-2.211-5.006-2.444-5.525l-0.245-0.541l-0.381,0.452  c-0.429,0.508-2.424,5.388-2.502,5.614c-0.291,0.825,0.484,1.4269,0.978,1.65c-0.01,0.081-0.04,0.233-0.148,0.498  c-1.094,2.687-1.857,8.017-1.239,11.121c0.389,1.962,0.195,2.882-0.076,3.314c-0.139-0.008-0.458-0.097-0.96-0.546l-0.323-0.287  l-0.238,0.362c-0.82,1.252-2.69,1.968-5.126,1.968c-1.614,0-3.295-0.329-4.39-0.858l-0.511-0.248l-0.025,0.566  c-0.034,0.828,0.378,1.717,0.74,2.504c0.2,0.432,0.537,1.158,0.449,1.32l-0.32,0.592l0.672-0.043  c0.673-0.041,1.405-0.075,2.154-0.107c2.566-0.117,5.222-0.238,6.3-0.754c0.285-0.137,0.534-0.207,0.739-0.207  c0.417,0,0.477,0.295,0.477,0.295c0,0.819-0.624,0.999-2.79,1.49l-0.954,0.218l0.855,0.474c2.295,1.27,2.147,4.006,2.138,4.15  l0.048,13.749c-0.795,0.532-1.83,1.166-2.619,1.643c0.008-0.069,0.016-0.108,0.024-0.135l0.183-0.7159l-0.685,0.279  c-0.224,0.091-0.858,0.244-2.614,0.244c-1.474,0-2.964-0.106-2.977-0.11l-0.423-0.029l0.069,1.311  c-1.264-0.342-3.483-1.196-4.765-3.1689l-0.434-0.6721l-0.236,0.765c-0.025,0.084-2.667,8.421-10.429,11.769l-0.814,0.348  l0.819,0.337c4.998,2.061,7.817,4.94,8.872,9.067l0.136,0.539l0.45-0.334c2.008-1.51,5.578-2.535,7.271-2.617l0.074,1.365  l0.425-0.086c0.015-0.004,1.558-0.316,3.119-0.316c0.894,0,1.614,0.101,2.136,0.299l0.638,0.24l-0.14-0.666  c-0.056-0.26-0.106-0.569-0.157-0.92l2.153,0.943c0.052,12.5,0.089,18.994,0.113,19.846c0.012,0.402,0.033,0.844,0.054,1.314  c0.104,2.223,0.248,5.268-0.67,6.41l-0.075,0.096l-0.008,0.119c-0.156,2.738,4.297,19.91,4.486,20.643l0.362,1.386l0.36-1.386  c0.776-2.983,4.638-17.977,4.484-20.643l-0.005-0.119l-0.074-0.096c-0.922-1.142-0.778-4.187-0.673-6.41  c0.02-0.47,0.044-0.912,0.053-1.314c0.028-1.018,0.073-10.01,0.103-17.535l0.652-0.022c0.663-0.019,0.701-0.021,1.002-0.105  c0.112-0.031,0.272-0.076,0.561-0.147c1.5-0.351,1.397-1.879,1.342-2.697c-0.005-0.0779-0.013-0.17-0.016-0.258  c0.396,0.0551,0.67,0.065,0.816,0.065h0.009c0.092,0.0291,0.24,0.064,0.438,0.064c0.316,0,0.641-0.088,0.968-0.262  c0.673-0.355,1.421-0.914,1.883-2.341c0.343-1.0569,0.06-1.84-0.342-2.332c0.484-0.135,1.079-0.37,1.456-0.772  C60.7123,72.6702,60.7043,72.0542,60.6923,71.2012"/>
</svg>