<?xml version="1.0" encoding="UTF-8"?>
<!-- Generator: Adobe Illustrator 18.0.0, SVG Export Plug-In . SVG Version: 6.00 Build 0)  -->
<!DOCTYPE svg PUBLIC "-//W3C//DTD SVG 1.1//EN" "http://www.w3.org/Graphics/SVG/1.1/DTD/svg11.dtd">
<svg version="1.1" id="Layer_1" xmlns="http://www.w3.org/2000/svg" xmlns:xlink="http://www.w3.org/1999/xlink" x="0px" y="0px" viewBox="0 0 94 158" style="enable-background:new 0 0 94 158;" xml:space="preserve">
<polygon id="point" points="47.7547,145.7121 47.0007,146.1471 46.2467,145.7121 14.1897,127.2041 14.1897,136.8851   47.0007,155.8271 79.8107,136.8851 79.8107,127.2041 "/>
<polygon id="banner" style="fill:#B3A169;" points="2.5388,2.1729 2.5388,117.9829 47.0007,143.6519 91.4617,117.9829   91.4617,2.1729 "/>
<path id="overlay" d="M14.0707,63.1567c0.254-0.553,0.42-1.258,0.358-2.209c0,0-0.133-2.202-0.842-2.562  c0,0,2.225,1.129,2.959,3.598l-0.985,0.402c-0.652,0.267-0.813,0.784-0.79,1.287C14.5207,63.5097,14.2977,63.3327,14.0707,63.1567   M18.7387,84.0847l-0.027-0.687l0.562-0.357l0.085-0.054c-0.679-1.265-1.631-2.54-2.563-3.7859c-0.782-1.047-1.52-2.034-2.121-3.036  c-0.131-0.216-0.307-0.502-0.514-0.845c-2.74-4.5-4.622-7.737-4.897-8.912l-0.589-2.523c-0.609-1.559-1.24-3.147-1.735-4.392  l-0.028-0.07c-0.611-1.538-1.447-3.643-2.787-5.001l-1.586-1.61v2.794c0.033,0.072,0.072,0.142,0.104,0.215  c-0.035,0.022-0.069,0.042-0.104,0.064v9.29c0.33-0.586,0.698-1.151,1.086-1.702c-0.001,0.033-0.004,0.062-0.005,0.093  c-0.112,4.407,1.724,8.177,4.204,11.824c-0.907,2.065-2.817,2.449-2.817,2.449s-1.494-0.302-2.468-1.797v7.77  c1.108,1.51,2.105,3.116,2.468,5.027c0.732-3.864,4.048-6.488,5.656-9.57c1.111,1.452,2.25,2.913,3.336,4.418v0.009  c0.168,2.579-1.771,2.959-1.771,2.959s-1.939-0.38-1.771-2.959c0,0,0.1-1.66,0.636-1.93c0,0-2.34,1.1769-2.406,3.805  c-0.067,2.627,3.006,4.227,3.541,7.045c0.491-2.583,3.11-4.146,3.491-6.414c1.827,2.848,3.324,5.894,3.979,9.348  c0.538-2.836,1.643-5.398,3.032-7.801C18.8037,84.9287,18.7707,84.6147,18.7387,84.0847 M9.9767,26.4307  c0.018-0.011,0.034-0.028,0.053-0.038c0,0-0.023,0.013-0.045,0.026C9.9807,26.4217,9.9787,26.4257,9.9767,26.4307 M58.3397,54.8997  c-0.155,0.2-0.309,0.405-0.458,0.61c-0.098,0.524-0.125,0.979-0.125,0.979c-0.217,3.315,2.274,3.804,2.274,3.804  s2.358-0.473,2.28-3.565c-0.025,0.006-0.05,0.012-0.05,0.012S60.4027,56.3687,58.3397,54.8997 M87.5137,59.1477  c0.402,1.053,0.727,2.145,0.944,3.288c0.517-2.722,1.627-5.16,3.004-7.443v-1.04l-1.607,1.549  C88.8727,56.4497,88.1727,57.7107,87.5137,59.1477 M91.4307,14.9667c0,0,0.011-0.003,0.031-0.006v22.137  c-1.081-1.663-2.614-2.441-2.614-2.441c0.811,0.41,0.965,2.929,0.965,2.929c0.254,3.919-2.69,4.496-2.69,4.496  s-2.943-0.577-2.689-4.496c0,0,0.037-0.62,0.175-1.294c0.726,0.657,1.466,1.126,2.101,1.444c-0.362-1.375-0.551-2.803-0.514-4.305  c0.004-0.142,0.016-0.279,0.022-0.42c-0.946-3.048-3.762-5.172-4.787-7.821c-0.088,0.749-0.12,1.255-0.12,1.255  c-0.299,4.605,1.066,7.466,2.68,9.232c-1.004,0.919-2.188,2.476-2.246,4.757c-0.03,1.199,0.375,2.256,0.971,3.266  c0.074,0.447,0.097,0.808,0.097,0.808c0.215,3.316-2.277,3.803-2.277,3.803s-2.49-0.487-2.275-3.803c0,0,0.128-2.1299,0.816-2.478  c0,0-3.005,1.511-3.092,4.889c-0.084,3.375,3.865,5.43,4.551,9.051c0.683-3.596,4.582-5.65,4.548-8.989  c0.916,1.247,1.741,2.572,2.039,4.152c0.557-2.943,2.938-5.0099,4.339-7.311v9.274l-2.596,0.48c-0.832,0.153-1.753,0.86-2.904,2.28  c-0.413-0.735-0.854-1.455-1.319-2.159c-0.093,0.775-0.129,1.313-0.129,1.313c-0.065,1.006-0.042,1.919,0.043,2.758  c-0.516,0.76-1.073,1.628-1.683,2.626c-0.033,0.056-0.063,0.106-0.09,0.15l-0.184,0.28c-0.732,1.126-1.47,1.988-2.329,2.719  c0.015-0.174,0.024-0.35,0.019-0.53c-0.1-3.991-3.653-5.776-3.653-5.776c0.811,0.41,0.965,2.929,0.965,2.929  c0.254,3.919-2.689,4.496-2.689,4.496s-2.944-0.577-2.69-4.496c0,0,0.153-2.519,0.964-2.929c0,0-3.55,1.785-3.653,5.776  c-0.054,2.112,1.228,3.788,2.568,5.532c-0.129,0.103-0.248,0.202-0.382,0.307c-0.149,0.118-0.278,0.219-0.385,0.318v-0.001  c-0.794,0.646-2.893,1.78-3.966,2.142l-0.381-5.666l-1.819,5.402c-0.059,0.177-0.11,0.372-0.153,0.578  c-0.225,0.801-0.817,2.6151-1.981,4.639c-0.262-0.345-0.484-0.801-0.564-1.44c-0.37,1.06-0.901,2.07-1.527,3.06  c0.13,0.269,0.289,0.532,0.457,0.792c-0.453,0.57-0.951,1.134-1.509,1.673l-1.514-2.36l-0.536,2.774  c-0.154,0.803-0.058,1.4771,0.014,1.908c-0.014,0.038-0.031,0.08-0.049,0.124c-0.153,0.387-0.395,0.996-0.693,1.639  c-0.387,0.604-0.74,1.227-1.051,1.873c-0.139,0.192-0.28,0.369-0.426,0.514c-0.087,0.088-0.411,0.254-0.625,0.362  c-0.155,0.08-0.315,0.163-0.474,0.254c-0.019-0.051-0.033-0.103-0.053-0.153c-0.042,0.086-0.077,0.174-0.118,0.261  c-0.374,0.231-0.725,0.51-0.938,0.921l-0.194-0.632l-0.578,0.106c-0.041-0.466,0.027-1.214,0.053-1.502  c0.039-0.418,0.058-0.649,0.016-0.886l-0.407-2.18l-1.525,1.612l-0.282,0.297c-0.041-0.21-0.085-0.401-0.127-0.604  c0.017-0.071,0.045-0.126,0.061-0.2c-0.048-0.071-0.101-0.138-0.149-0.21c-0.344-1.563-0.736-2.928-1.121-4.247  c-0.964-3.311-1.797-6.173-1.497-11.346c0.148-2.511,1.466-5.909,2.865-9.504c2.318-5.963,4.945-12.723,3.412-18.348  c-0.809-2.969-1.739-5.033-2.483-6.693c-0.954-2.12-1.641-3.651-1.695-6.002c-0.037-1.771,0.363-3.198,0.75-4.576  c0.306-1.086,0.607-2.193,0.67-3.4c1.786,1.86,3.613,4.689,3.83,8.588c0.947-1.493,2.322-2.192,2.322-2.192  c-0.711,0.359-0.843,2.562-0.843,2.562c-0.223,3.426,2.351,3.93,2.351,3.93s0.674-0.137,1.303-0.724  c-1.073-1.729-1.817-3.536-1.764-5.603c0.165-6.453,5.907-9.341,5.907-9.341c-1.312,0.663-1.559,4.736-1.559,4.736  c-0.412,6.334,4.349,7.267,4.349,7.267s0.852-0.172,1.801-0.847c-1.595-2.23-3.574-4.172-3.508-6.779  c0.057-2.216,1.181-3.747,2.165-4.67c-0.574-0.839-1.095-1.687-1.5-2.567c-0.407,0.903-0.729,1.85-0.92,2.86  c-0.507-2.668-1.907-4.907-3.457-7.013c-0.004,0.007-0.01,0.014-0.015,0.022c0.337,0.779,0.571,1.673,0.598,2.706  c0.116,4.571-5.231,7.353-6.161,12.255c-0.722-3.808-4.101-6.338-5.523-9.421c-0.06,0.078-0.116,0.158-0.175,0.236  c-0.09-0.201-0.163-0.396-0.271-0.604l-2.456-4.709l0.324,5.301c0.099,1.623-0.22,3.072-0.69,4.437  c-1.471,2.379-2.664,4.921-3.205,7.775c-0.695-3.655-2.449-6.803-4.501-9.744c-0.457,1.021-0.711,2.405-0.845,3.415  c1.627,1.648,3.336,4.218,3.427,7.83c0.016,0.596-0.035,1.17-0.131,1.731c1.105,0.719,2.05,0.914,2.05,0.914  s0.388-0.078,0.956-0.321c0.294,1.753,0.779,3.277,1.281,4.855c0.594,1.86,1.209,3.786,1.659,6.418  c0.525,3.067-1.79,7.653-4.031,12.087c-2.215,4.381-4.502,8.912-4.75,12.968c-0.266,4.349,0.317,8.024,1.246,11.51  c-1.322,1.721-2.667,3.479-3.664,5.425c-0.586-1.042-1.058-2.32-1.299-2.98c-0.014-0.037-0.028-0.074-0.041-0.108  c0.083-0.429,0.196-1.1,0.062-1.904l-0.465-2.783l-1.585,2.334c-0.003,0.001-0.003,0.002-0.003,0.003  c-3.105-3.234-5.017-9.375-5.038-9.444l-1.485-4.836l-0.716,5.008c-0.001,0.012-0.003,0.022-0.005,0.033  c-1.066-0.386-3.134-1.57-3.912-2.235c-0.104-0.099-0.228-0.201-0.371-0.319c-0.156-0.129-0.295-0.249-0.444-0.374  c0.402-0.1931,0.842-0.432,1.304-0.741c-1.419-2.407-3.784-4.277-3.764-6.923c-0.561,0.839-1.029,1.736-1.225,2.765  c-0.666-3.515-4.499-5.509-4.416-8.785c0.084-3.277,3-4.744,3-4.744c-0.668,0.337-0.792,2.405-0.792,2.405  c-0.209,3.218,2.208,3.692,2.208,3.692s2.418-0.474,2.21-3.692c0,0-0.126-2.068-0.792-2.405c0,0,2.916,1.467,2.999,4.744  c0.009,0.328-0.032,0.641-0.095,0.944c0.057-0.031,0.094-0.051,0.094-0.051c-0.034,0.018-0.065,0.042-0.096,0.067  c-0.119,0.568-0.347,1.102-0.642,1.619c-0.081,0.482-0.106,0.876-0.106,0.876c-0.222,3.426,2.352,3.929,2.352,3.929  s2.573-0.503,2.352-3.929c0,0-0.134-2.204-0.843-2.562c0,0,1.565,0.795,2.505,2.506c0.045-0.78,0.049-1.607-0.01-2.499  c0,0-0.246-3.982-1.313-6.627c-1.337,1.761-2.621,3.614-3.049,5.877c-0.724-3.818-3.866-6.474-5.619-9.476  c-2.038,2.655-4.216,5.384-4.872,8.843c-0.159-0.838-0.411-1.634-0.724-2.395c-0.395,1.979-0.505,3.778-0.505,3.778  c-0.17,2.617,0.142,4.73,0.723,6.442c-0.388-0.475-0.763-0.985-1.131-1.581l-0.174-0.282c-0.027-0.045-0.055-0.095-0.088-0.15  c-2.68-4.64-4.368-6.658-5.824-6.964l-2.624-0.551v-17.772c0.169-0.167,0.334-0.35,0.49-0.567c-0.136-0.496-0.303-0.976-0.49-1.447  v-14.121c0.428,0.171,0.715,0.231,0.715,0.231s1.063-0.212,2.194-1.076c-1.007-1.31-2.002-2.607-2.909-3.919V2.1727h4.506  c0.424,0.8,0.909,1.484,1.426,2.042c0.05-0.782,0.254-1.457,0.532-2.042h1.798c-0.09,3.21,2.356,3.698,2.356,3.698  s2.445-0.488,2.355-3.698h24.977c-0.039,0.051-0.078,0.101-0.116,0.152c1.841,1.609,3.728,1.981,3.728,1.981  s2.005-0.394,3.897-2.133h26.285c0.153,3.206,2.683,3.706,2.683,3.706s0.359-0.074,0.812-0.332c-0.728-1.158-1.523-2.277-2.34-3.374  h11.236c-0.684,1.801-0.845,4.38-0.845,4.38c-0.164,2.532,0.328,4.374,1.076,5.715c0.668-2.606,3.018-3.792,3.018-3.792  c-0.71,0.358-0.844,2.562-0.844,2.562C88.8577,14.4627,91.4307,14.9667,91.4307,14.9667 M6.4977,42.7807  c-0.746-1.071-1.398-2.158-1.853-3.303c-0.454,0.599-0.922,1.199-1.379,1.815c0.621,0.942,1.11,2.151,1.148,3.65  c0.011,0.428-0.042,0.835-0.123,1.233C5.1207,45.6987,6.1887,44.7177,6.4977,42.7807 M10.9007,48.8387  c-0.429-0.695-0.898-1.367-1.383-2.027c-0.432,1.278-1.217,2.452-2.089,3.624c0.226,0.421,0.425,0.876,0.586,1.369  C8.9727,50.6227,9.9757,49.6337,10.9007,48.8387 M15.2987,37.3697c-1.009-2.969-4.182-4.861-4.109-7.816  c0.024-0.899,0.268-1.655,0.604-2.283c-0.352-0.873-0.748-1.724-1.194-2.55c0.025-0.186,0.039-0.378,0.034-0.575  c-0.075-2.894-2.65-4.189-2.65-4.189c0.589,0.297,0.7,2.124,0.7,2.124c0.184,2.841-1.951,3.26-1.951,3.26s-2.136-0.419-1.952-3.26  c0,0,0.112-1.827,0.7-2.124c0,0-2.575,1.295-2.65,4.189c-0.022,0.868,0.276,1.632,0.707,2.364c1.007,0.708,2.695,2.204,3.428,4.581  c0.461-1.269,1.347-2.323,2.136-3.371c-0.543,1.461-0.669,3.524-0.669,3.524c-0.422,6.487,4.453,7.442,4.453,7.442  S14.1237,38.4407,15.2987,37.3697 M16.6097,35.5947c-0.181,0.281-0.349,0.567-0.502,0.864  C16.2917,36.2037,16.4557,35.9087,16.6097,35.5947 M17.1527,29.6707c-0.016-0.102-0.033-0.205-0.053-0.312  c-0.716-1.266-1.584-2.449-2.464-3.6c-0.46,0.945-0.852,1.926-1.175,2.94c0.454,1.861,2.05,2.179,2.05,2.179  S16.5107,30.6757,17.1527,29.6707 M24.7507,10.9157c0.861,1.114,1.619,2.547,1.94,4.319c0.718-2.074,2.182-3.412,3.126-4.1  c-1.178-1.558-2.4-3.043-3.144-4.661C26.2467,8.0177,25.5757,9.4867,24.7507,10.9157 M31.0567,30.9637  c0.032-1.182,0.368-2.1671,0.824-2.972c-0.947-1.865-2.365-3.478-3.546-5.116c-0.198,1.073-0.256,2.004-0.256,2.004  c-0.278,4.264,1.615,6.263,3.082,7.166C31.0927,31.6947,31.0477,31.3387,31.0567,30.9637 M18.7757,19.2507  c0.754-0.219,3.512-1.296,3.913-5.181C21.4517,15.7897,20.0907,17.4947,18.7757,19.2507 M26.7907,38.1027  c-1.905-2.558-3.49-5.13-3.412-8.246c0.104-4.061,2.249-6.8069,4.025-8.401c-0.397-0.684-0.725-1.3849-0.923-2.126  c-1.144,3.702-4.664,6.685-6.662,10.494c-0.004,0.075-0.004,0.149-0.011,0.222c1.055,1.486,1.92,3.441,1.984,5.913  c0.043,1.697-0.438,3.2209-1.194,4.672c0.993,1.863,2.779,2.215,2.779,2.215S26.6117,42.2087,26.7907,38.1027 M31.1117,51.0367  c0.047-1.826,0.408-3.449,0.953-4.8831c-0.533-1.329-1.256-2.564-2.062-3.743c-0.45,1.899-1.69,3.556-2.995,5.255  c1.176,0.854,2.678,2.119,4.109,3.816C31.1147,51.3337,31.1077,51.1867,31.1117,51.0367 M36.0377,14.1237  c0,0-0.008-0.119-0.026-0.311c-0.382-0.5-0.759-0.999-1.13-1.498c-0.958,1.385-1.775,2.866-2.101,4.582  c-0.395-2.081-1.512-3.815-2.727-5.45c-0.431,1.07-0.53,2.677-0.53,2.677c-0.308,4.745,3.258,5.443,3.258,5.443  S36.3447,18.8687,36.0377,14.1237 M38.3597,65.5397c-0.896-1.198-1.818-2.367-2.691-3.538c0.052,0.509,0.093,1.028,0.107,1.564  c0.07,2.767-0.633,5.281-1.775,7.675c0.019,0.328,0.068,0.621,0.132,0.893C35.4187,71.6367,38.1747,70.0507,38.3597,65.5397   M38.0907,40.0427c-0.614,1.976-0.765,4.411-0.765,4.411c-0.587,9.057,6.22,10.39,6.22,10.39s0.119-0.0229,0.315-0.0829  c-0.23-1.21-0.342-2.457-0.31-3.752c0.015-0.599,0.061-1.181,0.119-1.751C42.5607,45.7697,40.2607,42.8717,38.0907,40.0427   M39.2957,18.1777c-0.01-0.014-0.02-0.026-0.03-0.041c-0.002,0.022-0.002,0.043-0.004,0.065  C39.2737,18.1927,39.2857,18.1857,39.2957,18.1777 M58.9067,12.2587c-0.771-1.482-1.899-2.768-2.846-4.077  c-0.797,1.409-1.74,2.779-2.751,4.144c0.782,2.245,2.787,2.646,2.787,2.646S58.1407,14.5617,58.9067,12.2587 M49.4747,66.2397  c-0.21-0.289-0.414-0.58-0.617-0.8701c-0.135,0.181-0.267,0.362-0.402,0.544c-0.021,0.226-0.03,0.368-0.03,0.368  c-0.031,0.473-0.032,0.915-0.015,1.335C48.7467,67.1057,49.1077,66.6427,49.4747,66.2397 M70.7447,23.3887  c0,0,0.301-0.06,0.699-0.267c0.006-0.251,0.015-0.501,0.003-0.773c-1.043-1.517-2.216-2.945-3.268-4.3849  c-0.085,0.5259-0.112,0.947-0.112,0.947C67.8127,22.8137,70.7447,23.3887,70.7447,23.3887 M61.1067,43.8497  c0.989,1.165,2.234,1.416,2.234,1.416s2.397-0.475,3.179-3.225c-0.565-1.492-1.385-2.856-2.302-4.152  C63.8067,40.0527,62.5437,41.9497,61.1067,43.8497 M56.0967,38.7817c0,0,0.699-0.143,1.523-0.673  c-1.094-1.667-2.545-3.106-3.163-4.793c-0.472,1.145-0.808,2.513-1.044,3.784C54.6097,38.4837,56.0967,38.7817,56.0967,38.7817   M55.0537,73.6447c-1.356-1.842-2.764-3.636-4.116-5.423c-0.009,0.112-0.013,0.177-0.013,0.177  c-0.215,3.323,1.066,5.079,2.257,5.991c0.065,0.016,0.111,0.027,0.111,0.027S54.0977,74.2527,55.0537,73.6447 M63.1427,71.8257  c0,0-0.047,0.024-0.123,0.069c-0.001,0.015,0,0.028-0.001,0.042C63.0587,71.8967,63.0967,71.8487,63.1427,71.8257 M71.6167,41.1047  c0,0-0.136-2.217-0.628-4.603c-0.684,0.899-1.356,1.814-1.951,2.777c0.613,1.045,1.072,2.338,1.112,3.901  c0.122,4.78-5.137,7.8-6.577,12.699c-0.245-0.346-0.509-0.638-0.766-0.885c-0.737-1.847-1.97-3.441-3.161-4.992  c-0.618-1.422-1.911-2.079-1.911-2.079c0.495,0.25,0.59,1.789,0.59,1.789c0.153,2.392-1.643,2.744-1.643,2.744  s-1.797-0.352-1.642-2.744c0,0,0.093-1.539,0.589-1.789c0,0-2.168,1.091-2.23,3.527c-0.049,1.933,1.731,3.267,2.718,5.04  c-0.355,0.663-0.613,1.46-0.638,2.409c-0.084,3.375,3.865,5.4319,4.552,9.052c0.687-3.6201,4.636-5.677,4.55-9.052  c-0.028-1.077-0.352-1.962-0.779-2.671C66.6197,55.0497,72.2847,51.3937,71.6167,41.1047 M74.1687,34.0087  c0.02-0.805,0.099-1.576,0.218-2.317c-0.466,0.827-1.008,1.636-1.597,2.437c0.467,0.412,0.947,0.869,1.432,1.364  C74.1787,35.0077,74.1557,34.5137,74.1687,34.0087 M75.9527,12.3037c-1.31-2.27-3.371-4.115-4.085-6.365  c-0.61,0.906-1.286,1.799-1.979,2.7c0.969,3.837,4.276,4.49,4.276,4.49S74.9997,12.9587,75.9527,12.3037 M82.4787,19.2667  c-0.535-0.877-1.002-1.768-1.359-2.692c-1.7,2.617-4.068,5.089-5.608,8.011c0.157,0.66,0.258,1.366,0.278,2.126  c0.005,0.171-0.018,0.333-0.024,0.501c1.754-3.728,4.541-6.157,6.35-7.443C82.2327,19.5917,82.3537,19.4227,82.4787,19.2667   M86.4537,24.7607c-0.924-1.22-1.86-2.412-2.718-3.616c0.191,3.132,2.675,3.628,2.675,3.628S86.4287,24.7667,86.4537,24.7607   M89.3557,62.3417c-0.037,1.477,0.673,2.706,1.555,3.918c-0.919-0.281-3.24-1.226-4.829-3.776c-0.319,0.759-0.646,1.548-0.966,2.325  l-0.657,2.549c-0.215,0.837-1.246,2.653-2.88,5.279c0.741,1.065,1.541,2.118,2.355,3.179c0.26-0.554,0.422-1.279,0.36-2.24  c0,0-0.133-2.205-0.843-2.563c0,0,3.104,1.563,3.194,5.052c0.023,0.9-0.235,1.708-0.638,2.478c1.068,1.445,2.086,2.934,2.961,4.504  c-0.393,1.4951-1.684,1.748-1.684,1.748s-1.953-0.382-1.783-2.98c0,0,0.1-1.67,0.638-1.942c0,0-2.353,1.184-2.421,3.831  c-0.067,2.643,3.027,4.255,3.566,7.093c0.385-2.033,2.076-3.435,2.984-5.039c0.447,1.111,0.813,2.263,1.043,3.481  c0.043-0.228,0.1-0.446,0.151-0.669v-30.511C90.5567,58.8427,89.4087,60.2397,89.3557,62.3417 M86.8067,2.1727  c2.002,2.676,3.856,5.511,4.504,8.926c0.041-0.215,0.101-0.421,0.151-0.632v-8.294H86.8067z M80.6327,74.1427  c-0.207,0.326-0.424,0.667-0.645,1.014c0.134,0.734,0.173,1.364,0.173,1.364c0.31,4.763-3.269,5.4641-3.269,5.4641  s-0.605-0.125-1.295-0.599c-0.564,0.783-1.092,1.578-1.501,2.39l0.525,0.368l-0.058,0.662c-0.03,0.358-0.06,0.617-1.318,1.596  c1.515,1.979,3.157,4.005,3.647,6.584c0.986-5.201,6.66-8.152,6.537-13.003C83.3567,77.1607,81.8667,75.2517,80.6327,74.1427"/>
<path id="symbol" style="fill:#FFFFFF;" d="M89.0703,54.6882c-1.883,0.347-5.513,6.851-5.522,6.753  c-1.768,2.715-3.546,4.032-6.316,5.202c0.016-0.999,0.948-2.243,0.547-2.419c-1.066,2.426-5.774,5.783-5.732,5.821  c-0.971,0.79-4.863,2.987-5.52,2.418c-0.066-0.311-0.241-0.377-0.287-1.056c-0.05,0.156-0.091,0.32-0.125,0.483  c-0.433,1.56-2.136,6.674-6.545,10.257c-0.429-0.296-0.401-0.832-0.618-1.1689c-0.154,0.8019,0.02,1.438,0.072,1.823  c-0.301,0.709-1.286,3.528-2.59,4.823c-0.498,0.494-1.728,0.801-2.0099,1.381c0.198-0.021,0.3979-0.042,0.6-0.066  c1.287,1.4109-1.698,3.041-2.575,0.189c-1.449,0.266-0.764-2.988-0.836-3.368c-0.64,0.679-1.242,1.344-1.922,1.929  c-0.037-0.545-0.084-1.041-0.144-1.399c-1.158-6.739-3.475-9.468-2.996-17.682c0.403-6.928,8.657-18.884,6.312-27.489  c-1.799-6.61-4.113-8.3911-4.215-12.969c-0.111-5.005,2.946-7.338,0.476-12.076c0.318,5.224-3.21,8.631-3.222,12.567  c-0.015,5.648,2.103,8.17,3.209,14.622c1.12,6.528-8.276,17.247-8.767,25.314c-0.416,6.797,1.238,11.757,3.275,17.691  c0.203,0.593,0.368,1.099,0.512,1.561c-1.001-0.572-2.01-1.012-2.52-1.584c-0.083,0.379,0.539,2.997-0.903,2.697  c-0.944,2.829-3.892,1.125-2.57-0.253c0.201,0.0309,0.4,0.058,0.6,0.079c-0.271-0.584-1.492-0.918-1.977-1.426  c-1.275-1.328-2.191-4.168-2.472-4.885c0.061-0.382,0.25-1.015,0.114-1.8199c-0.223,0.331-0.211,0.8669-0.645,1.152  c-4.015-3.071-6.412-10.895-6.412-10.895c-0.01,0.072-0.018,0.149-0.028,0.231c-0.078,0.463-0.218,0.547-0.284,0.815  c-0.665,0.553-4.505-1.735-5.458-2.549c0.043-0.036-4.58-3.509-5.59-5.958c-0.404,0.165,0.496,1.431,0.487,2.431  c-2.738-1.235-4.485-2.594-6.187-5.354c-0.011,0.098-3.4821-6.489-5.356-6.884c1.439,1.461,2.288,3.504,3.033,5.38  c0.926,2.328,2.324,5.841,3.171,8.176c-0.302-0.311-0.395-0.785-0.769-1.031c0.332,1.416,4.237,7.705,5.278,9.43  c1.638,2.726,4.5959,5.694,5.513,8.762c-0.306-0.011-1.033-0.181-1.277-0.348c-0.417,0.265,11.404,8.458,13.149,9.296  c1.037,0.497,4.718,3.026,5.815,2.384c-1.4969-1.256,2.731-3.733,4.1411-3.54c1.127,0.153,1.66,0.3,1.866,1.128  c0.007,1.305,0.013,3.129-0.075,3.741c0,0-0.394,2.496-0.544,2.946c-0.61,1.798-0.814,3.771-2.038,5.25  c-0.354,0.429-0.778,1.26-1.114,2.535c0.017,0.491,0.111,2.642,0.394,3.053c0.533,0.047,0.91-0.025,1.203-0.29  c0.152,0.153,1.303,0.662,2.1,0.633c-0.98-0.686-1.721-0.919-1.01-2.571c0.201-0.465,0.273-0.956,0.401-1.337  c0.125-0.534,0.364-0.367,0.499-0.586c0.738-0.505,1.3051-1.677,2.858,0.514c0.004,0.248,0.004,0.248-0.159,0.421  c0.203,0.061,0.59,0.191,0.209,0.592c0.094-0.022,0.34-0.046,0.453,0.145c0.244,0.41-0.058,0.22,0.336,0.473  c-0.058,0.096-0.483,0.314-0.543,0.41c0.141,0.05,0.748-0.124,0.796,0.061c0.055,0.089,0.134,0.267,0.033,0.359  c-0.033,0.033-0.149,0.055-0.201,0.078c-0.155,0.067-0.284,0.109-0.331,0.169c1.186,0.274,0.68-0.034,1.022,0.227  c0.106,0.31,0.148,0.541,0.148,0.541c0.822-1.621,0-3.603,0-3.603c-0.019,0.463-0.21,0.569-0.21,0.569  c-1.085-0.968-1.048-2.74-1.04-2.96c0.035-0.149,0.078-0.302,0.143-0.464c0.244-0.591,0.556-0.603,0.939-1.465  c0.209-0.434,0.095-0.836,0.033-1.312c-0.226-0.819-0.17-1.934-0.04-2.769c0.015-0.091,0.487-3.538,0.487-3.538l0.102-1.783  c0.135-0.675,0.4-1.017,1.211-1.108c1.414-0.1609,4.797,2.493,3.272,3.709c1.078,0.669,4.821-1.767,5.868-2.242  c1.765-0.795,13.778-8.701,13.374-8.974c-0.249,0.161-0.632,0.006-0.937,0.01c0.993-3.047,3.666-5.633,5.372-8.319  c1.08-1.701,5.139-7.892,5.503-9.302c-0.378,0.237-0.483,0.71-0.792,1.015c0.903-2.315,2.354-5.794,3.333-8.101  C86.6973,58.1332,87.5944,56.1132,89.0703,54.6882z M42.0305,108.5112c0,0-0.104,0.127-0.061,0.221l-0.0001-0.0001v0.0001  l-0.148-0.109c0,0-0.204-0.532-0.179-0.699c0.024-0.168,0.042-0.778,0.525-1.188v0.0001c0.0001-0.0001,0.0001-0.0001,0.0001-0.0001  c0,0,0.042,0.53,0.101,0.6981l0.154,0.4579C42.4224,107.8922,42.3145,108.3972,42.0305,108.5112z M48.8503,115.4992  c-0.016,1.7-1.405,3.071-3.106,3.061c-1.703-0.014-3.0699-1.405-3.058-3.106c0.013-1.7,1.402-3.069,3.103-3.056  C47.4924,112.4102,48.8624,113.7992,48.8503,115.4992z"/>
</svg>