<?xml version="1.0" encoding="UTF-8"?>
<!-- Generator: Adobe Illustrator 18.0.0, SVG Export Plug-In . SVG Version: 6.00 Build 0)  -->
<!DOCTYPE svg PUBLIC "-//W3C//DTD SVG 1.1//EN" "http://www.w3.org/Graphics/SVG/1.1/DTD/svg11.dtd">
<svg version="1.1" id="Layer_1" xmlns="http://www.w3.org/2000/svg" xmlns:xlink="http://www.w3.org/1999/xlink" x="0px" y="0px" viewBox="0 0 94 158" style="enable-background:new 0 0 94 158;" xml:space="preserve">
<polygon id="point" style="fill:#8E7C1B;" points="47.7531,145.7136 47.0001,146.1486 46.2461,145.7136 14.1891,127.2046   14.1891,136.8846 47.0001,155.8266 79.8101,136.8846 79.8101,127.2046 "/>
<polygon id="banner" style="fill:#194734;" points="2.538,2.1735 2.538,117.9805 47,143.6525 91.462,117.9805 91.462,2.1735 "/>
<path id="overlay" style="fill:#8E7C1B;" d="M47.9452,30.7814c0.016,0.004,0.032,0.009,0.048,0.013  c0.022,0.732,0.191,1.435,0.633,2.373c0,0-2.662-0.746-3.903,3.16c0,0-1.855-2.162-0.553-6.597  C45.4272,30.0944,46.7132,30.4454,47.9452,30.7814 M31.8042,15.1244c-0.314,0.322-0.566,0.721-0.773,1.156l0.539,0.728  c0.637,0.861,2.754,2.304,5.103,3.63c-1.104-1.182-2.106-2.488-2.768-3.752C32.8862,16.8034,32.0502,16.0854,31.8042,15.1244   M26.7002,59.8654c0.124-0.096,0.237-0.197,0.329-0.309c0.8-0.976,1.688-1.394,2.471-1.764c0.673-0.317,1.203-0.567,1.648-1.145  c0.118-0.155,0.223-0.294,0.317-0.421c0.752-0.998,1.204-1.599,2.644-1.599c0.304,0,0.662,0.022,1.113,0.048l0.143,0.008  c0.029,0.003,0.061,0.003,0.096,0.003c0.037,0,0.082-0.003,0.122-0.004c-0.03-0.991,0.152-2.033,0.369-3.513  c-1.035-1.003-2.039-2.068-2.513-3.46c-0.193-0.566-0.352-1.467-0.38-2.465c-0.3,1.945-0.811,4.033-1.663,6.068  c-0.01,0.024-0.017,0.044-0.026,0.068c-0.343-1.552-0.878-2.889-1.389-3.924c0.878-0.324,1.589-0.123,1.589-0.123  c-1.328-2.814-0.383-3.651-0.001-8.766c0.119,0.248,0.254,0.484,0.417,0.69c0.379-0.392,0.869-0.674,1.416-0.807  c0.053,1.049,0.07,2.47-0.042,4.098c0.323-1.172,0.908-2.106,1.708-2.772c-0.222-0.512-0.448-0.984-0.664-1.386  c0.596,0.063,1.136,0.304,1.572,0.668l0.647-0.488c0.252-0.524,0.406-1.127,0.406-1.778c0-0.354-0.043-0.694-0.122-1.015  l0.032-0.012c-0.848-2.235-0.797-3.986-0.481-5.246c0.124,0.219,0.256,0.429,0.407,0.618c0.699-0.726,1.68-1.178,2.767-1.178  c0.303,0,0.594,0.042,0.875,0.106c0.075,1.29,0.102,3.221-0.128,5.439l0.57-0.429l-0.303,2.621c-0.026,0.232-0.06,0.472-0.094,0.719  c-0.252,1.842-0.353,3.211,0.637,4.045c0.993,0.837,1.838,1.397,2.733,1.397c0.531,0,1.077-0.2,1.67-0.609l1.925-1.329l-0.154,2.333  c-0.142,2.164,0.199,3.711,0.496,3.999c0.138,0.13,0.288,0.217,0.57,0.217c0.252,0,0.697-0.073,1.423-0.404  c0.07-0.105,0.124-0.211,0.187-0.317c0.177-2.977,0.668-5.489,0.668-5.489l-0.045-0.006c0.029-0.263,0.045-0.53,0.045-0.802  c0-1.832-0.68-3.469-1.752-4.566c-0.363,1.416-1.643,2.464-3.172,2.464c-0.875,0-1.662-0.349-2.248-0.908  c0.102-3.28-0.918-6.059-1.831-7.861c0.252,0.163,0.489,0.343,0.696,0.558c0.376-0.473,0.659-1.049,0.846-1.68  c-2.095-0.627-4.045-1.287-5.418-1.973c-1.854-0.925-5.121-3.789-6.971-6.651c0.258,2.032,0.491,5.295-0.283,7.321  c0,0,2.379,2.368,0.945,6.94c-0.049,0.109-0.08,0.23-0.119,0.345c-0.618-3.488-2.473-5.835-2.473-5.835s0.932,6.468-1.543,12.365  c-2.472,5.898,0,8.749,0,8.749c0.369-1.157,0.855-1.924,1.364-2.441c0.035,2.902-0.277,7.364-2.045,11.582  C26.7022,59.8614,26.7012,59.8634,26.7002,59.8654 M12.4882,20.2694c0.087-0.168,0.161-0.343,0.21-0.528  c0.833,0.85,1.361,2.124,1.361,3.549c0,0.211-0.012,0.418-0.035,0.622l0.035,0.006c0,0-0.884,4.512-0.439,7.956  c0.817,2.471,1.223,6.06-0.244,10.733c-0.005,0.012-0.008,0.023-0.013,0.034c0.013,0.142,0.027,0.284,0.027,0.43  c0,0.919-0.279,1.749-0.724,2.41c-0.02,0.245-0.046,0.489-0.046,0.741c0,2.04,0.67,3.89,1.752,5.252  c1.136-1.178,2.727-1.916,4.496-1.916c1.767,0,3.358,0.738,4.494,1.916c1.083-1.362,1.752-3.212,1.752-5.252  c0-0.752-0.094-1.474-0.261-2.16l0.068-0.025c-0.133-0.347-0.254-0.688-0.364-1.024c-0.599-0.025-1.908,0.195-2.61,2.404  c0,0-1.725-1.992,0-6.106c1.725-4.115,1.077-8.629,1.077-8.629s0.508,0.643,0.994,1.717c0.87-3.025,2.42-4.569,2.42-4.569  c-0.134-0.351-0.249-0.722-0.356-1.105c1.356-3.166,3.735-2.504,3.735-2.504c-1.05-2.226-0.617-3.166-0.229-6.181  c-0.01-0.049-0.029-0.099-0.038-0.148l-0.918-4.85l1.207,1.63c-0.097-4.341-2.554-7.445-2.554-7.445s0.891,6.199-1.48,11.853  c-0.897,2.138-1.114,3.856-1.038,5.17c-0.443,0.477-0.861,1.169-1.183,2.18c0,0-2.294-2.648,0-8.12  c2.294-5.473,1.432-11.478,1.432-11.478s0.655,0.832,1.294,2.223c0.078-0.451,0.128-0.71,0.128-0.71l-0.069-0.011  c0.045-0.404,0.069-0.814,0.069-1.231c0-1.817-0.44-3.505-1.19-4.93h-2.621c-0.922,1.04-2.261,1.699-3.759,1.699  c-1.499,0-2.839-0.659-3.761-1.699h-2.621c-0.751,1.425-1.192,3.113-1.192,4.93c0,0.895,0.109,1.759,0.306,2.577  C11.9422,11.7774,12.5322,16.0454,12.4882,20.2694 M46.8512,133.6994c1.033,2.075,2.135,5.185,2.08,8.837l-1.932,1.116l-2.238-1.292  c0.536-2.848,0.674-5.504,0.656-7.536c-0.387,0.494-0.75,1.153-1.039,2.059c0,0-1.359-1.574-1.031-4.798  c-0.219,0.333-0.463,0.644-0.732,0.92c-0.297-1.16-1.174-2.08-2.301-2.447c-0.091,0.838-0.039,1.455,0.418,2.421  c0,0-1.898-0.531-2.781,2.25c0,0-1.229-1.424-0.494-4.35c-0.579,0.347-1.045,0.855-1.344,1.464c0.222,0.902,0.514,1.846,0.89,2.835  c0.051-0.075,0.094-0.158,0.151-0.228c0.533,0.555,1.28,0.9,2.11,0.9c0.829,0,1.577-0.345,2.109-0.9  c0.509,0.64,0.824,1.507,0.824,2.467c0,0.357-0.043,0.7-0.125,1.026h0.002c-0.002,0.001-0.002,0.003-0.003,0.004  c-0.058,0.234-0.134,0.457-0.23,0.665c-0.15,0.485-0.252,0.939-0.326,1.374l-15.484-8.942c0.365-1.771,0.461-3.362,0.378-4.764  c0.99-2.257,2.7-1.784,2.7-1.784c-0.93-1.967-0.266-2.549,0-6.133c0.265-3.584-1.844-6.237-1.844-6.237s0.649,4.514-1.076,8.627  c-0.247,0.589-0.416,1.128-0.537,1.63c-0.885-2.583-2.201-3.912-2.201-3.912c0.827-2.168,1.108-5,1.119-7.831  c-0.582,1.58-1.444,2.975-2.52,4.077c-0.693-2.698-3.136-4.698-6.052-4.698c-0.784,0-1.531,0.149-2.221,0.413  c-0.308-0.988-0.156-1.706,0.044-3.072c0.374-0.255,0.823-0.408,1.31-0.408c0.665,0,1.261,0.279,1.687,0.721  c0.407-0.512,0.659-1.206,0.659-1.973c0-0.282-0.035-0.553-0.098-0.809l0.025-0.011c-1.522-4.004,0.569-6.084,0.569-6.084  c-0.95-2.486,0-7.313,0-7.313l-0.025-0.005c0.016-0.151,0.025-0.304,0.025-0.462c0-1.057-0.391-2.002-1.011-2.635  c-0.208,0.818-0.948,1.422-1.831,1.422c-0.882,0-1.622-0.604-1.831-1.422c-0.618,0.633-1.011,1.578-1.011,2.635  c0,0.336,0.04,0.661,0.115,0.967c0.211,1.298,0.677,4.813-0.088,6.813c0,0,0.604,0.604,0.925,1.783  c-0.49-1.092-1.005-1.744-1.005-1.744s0.647,4.507-1.075,8.617c-1.144,2.728-0.77,4.516-0.389,5.414  c-0.317,0.488-0.573,1.019-0.746,1.589c0.876,0.737,1.998,1.191,3.234,1.191c2.35,0,4.321-1.612,4.878-3.787  c1.647,1.684,2.694,4.202,2.694,7.019c0,0.417-0.025,0.828-0.07,1.231l0.07,0.011c0,0-0.129,0.657-0.3,1.745  c0.5,1.068,1,2.621,0.866,4.428c-0.058,0.788-0.137,1.42-0.212,1.955l-11.597-6.696c0.076-1.869,0.401-3.532,0.401-3.532  l-0.027-0.004c0.017-0.15,0.027-0.303,0.027-0.458c0-1.047-0.388-1.984-1.001-2.609c-0.207,0.809-0.941,1.408-1.813,1.408  c-0.413,0-0.793-0.137-1.101-0.364c0.405-1.477,1.114-2.786,2.034-3.824c-0.946-1.776-1.503-3.887-1.503-6.158  c0-0.518,0.031-1.027,0.087-1.526l-0.087-0.016c0,0,1.685-8.569,1.35-16.383c-0.039,0.051-0.073,0.104-0.111,0.153  c-0.3-0.312-0.628-0.592-0.971-0.859c-0.263,3.167-0.835,3.75,0.024,5.569c0,0-0.509-0.138-1.122,0.111  c0.166,0.634,0.262,1.309,0.262,2.01c0,0.303-0.019,0.601-0.052,0.893l0.052,0.006c0,0-1.835,9.318,0,14.118  c0,0-2.795,2.821-2.003,8.258l-1.497-0.865v-25.35c0.402-0.263,0.753-0.602,1.024-1c0.115-0.53,0.289-1.107,0.555-1.745  c0.441-1.047,0.714-2.12,0.884-3.132c-0.769-0.338-1.597-0.566-2.463-0.676v-21.449c0.283,0.76,0.608,1.134,0.608,1.134  c0.541-1.701,1.356-2.515,2.1-2.892c-0.159,0.491-0.331,0.982-0.535,1.469c-2.335,5.57,0,8.264,0,8.264  c0.879-2.763,2.458-3.224,3.33-3.254c0.152,2.005,0.551,4.213,1.301,6.625c0.376-1.093,0.685-2.371,0.849-3.826  c0.359,0.929,0.594,2.352-0.006,4.264c-0.074,0.168-0.136,0.345-0.182,0.533c-0.001,0-0.002,0.001-0.003,0.002l0.001,0.001  c-0.064,0.26-0.1,0.535-0.1,0.819c0,0.766,0.252,1.461,0.658,1.972c0.427-0.442,1.025-0.719,1.687-0.719  c0.664,0,1.261,0.277,1.688,0.719c0.406-0.511,0.658-1.206,0.658-1.972c0-0.281-0.035-0.554-0.098-0.811l0.024-0.009  c-1.52-4.004,0.571-6.084,0.571-6.084c-0.95-2.486,0-7.315,0-7.315l-0.027-0.003c0.019-0.152,0.027-0.305,0.027-0.463  c0-1.057-0.393-2.002-1.01-2.634c-0.21,0.817-0.95,1.421-1.833,1.421c-0.882,0-1.622-0.604-1.831-1.421  c-0.618,0.632-1.011,1.577-1.011,2.634c0,0.217,0.023,0.428,0.055,0.634c-0.191-0.717-0.417-1.459-0.684-2.222  c-0.081,0.282-0.155,0.577-0.226,0.877c0.04-0.392,0.08-0.805,0.114-1.265c0.226-3.04-0.813-5.585-1.618-7.061  c0.165-4.553-2.467-7.88-2.467-7.88s0.863,6.005-1.432,11.477c-0.26,0.622-0.456,1.203-0.608,1.753V7.0744  c0.307,0.475,0.749,1.229,1.164,2.213c0.13-0.402,0.279-0.817,0.462-1.253c0.831-1.982,1.266-4.024,1.486-5.861h2.559  c0.102,0.783,0.142,1.614,0.078,2.487c-0.374,5.06-1.31,5.883,0,8.659c0,0-2.114-0.587-3.53,1.946  c-0.002,0.025-0.001,0.048-0.003,0.072c-0.167,2.261-0.445,3.674-0.587,4.796c2.074-0.859,3.66-2.655,4.226-4.865  c0.252,0.257,0.489,0.534,0.72,0.82c0.323-3.313-0.036-5.817-0.036-5.817s3.022,3.805,2.643,8.942  c-0.043,0.574-0.094,1.089-0.147,1.566c0.042,0.134,0.074,0.274,0.112,0.411c-0.414,0.29-0.912,0.467-1.454,0.467  c-1.189,0-2.186-0.817-2.467-1.916c-0.832,0.85-1.362,2.124-1.362,3.549c0,0.452,0.054,0.889,0.155,1.304  c0.283,1.746,0.912,6.481-0.119,9.176c0,0,2.561,2.553,1.015,7.475c-0.1,0.224-0.183,0.466-0.245,0.717  c-0.001,0.001-0.002,0.002-0.002,0.005v0.001c-0.085,0.349-0.134,0.72-0.134,1.103c0,1.032,0.338,1.967,0.885,2.656  c0.575-0.597,1.38-0.97,2.274-0.97c0.145,0,0.283,0.025,0.422,0.044c0.058,2.655,0.299,5.275,0.834,7.589  c1.27,0.915,2.824,1.459,4.511,1.459c2.191,0,4.166-0.912,5.575-2.375c1.342,1.69,2.173,3.983,2.173,6.513  c0,0.363-0.023,0.718-0.056,1.07c0.222,0.556,0.428,1.169,0.608,1.823c-0.154,0.042-0.306,0.083-0.453,0.124  c-1.443,0.389-2.934,0.793-2.998,2.192c-0.044,0.947-0.578,2.174-0.967,3.069c-0.429,0.984-0.666,1.525-0.498,2.102  c0.188,0.644,0.479,0.922,0.859,1.139c0.022,0.013,0.048,0.027,0.078,0.048c0.712,0.539,0.89,0.628,1.876,1.117  c0.423,0.21,1.036,0.515,1.952,0.986c-0.243,1.804-0.233,2.96,0.684,4.9c0,0-0.894-0.245-1.981,0.181  c1.076,2.694,2.451,4.064,2.451,4.064c-0.185,0.486-0.345,1.004-0.49,1.54c-0.094-0.124-0.193-0.243-0.3-0.352  c-0.255,0.986-1.149,1.72-2.217,1.72s-1.963-0.734-2.216-1.72c-0.747,0.765-1.224,1.909-1.224,3.188  c0,0.406,0.051,0.798,0.139,1.171c0.255,1.57,0.819,5.822-0.107,8.242c0,0,2.301,2.292,0.913,6.714  c-0.091,0.202-0.164,0.418-0.22,0.646c-0.002,0.001-0.003,0.001-0.003,0.002v0.002c-0.076,0.314-0.119,0.647-0.119,0.991  c0,0.925,0.303,1.765,0.796,2.385c0.515-0.535,1.239-0.871,2.041-0.871c0.803,0,1.526,0.336,2.041,0.871  c0.493-0.62,0.796-1.46,0.796-2.385c0-0.342-0.042-0.67-0.118-0.982l0.031-0.011c-1.841-4.846,0.689-7.362,0.689-7.362  c-1.15-3.007,0-8.849,0-8.849l-0.032-0.005c0.02-0.183,0.032-0.37,0.032-0.559c0-0.411-0.054-0.805-0.146-1.179  c1.314-4.841,1.063-9.44,0.906-11.119c0.189,0.1,0.395,0.209,0.599,0.318c1.021,1.658,2.813,5.251,2.484,9.686  c-0.455,6.137-1.592,7.133,0,10.499c0,0-0.954-0.258-2.086,0.228c0.785,0.75,1.812,1.232,2.952,1.351  c0.277,1.063,0.825,2.526,1.547,4.167c-0.012,2.121,0.882,3.162,0.882,3.162c0.082-0.258,0.173-0.486,0.268-0.7  c2.146,4.355,5.061,9.118,7.241,10.845c0.682,0.539,1.308,1.151,1.908,1.795c-0.202,1.325-0.543,2.748-1.126,4.138  c-1.995,4.757,0,7.059,0,7.059c0.688-2.165,1.878-2.674,2.646-2.764c0.135,1.533,0.326,2.865,0.461,3.697  c0.125,0.521,0.191,1.073,0.202,1.642c1.119-2.779,1.489-5.658,1.575-7.899c0.862,2.041,1.468,4.282,1.768,6.683l0.243,1.939  c-0.294,1.963-0.422,2.953,0.456,4.812C48.5132,133.5384,47.7592,133.3324,46.8512,133.6994 M36.9352,135.2024  c0.006,0.021,0.008,0.042,0.012,0.061c0.017-0.028,0.037-0.056,0.055-0.084L36.9352,135.2024z M22.6022,129.5664l3.069,1.771  c-0.379-4.992-3.133-8.49-3.133-8.49S22.9502,125.7244,22.6022,129.5664 M54.5692,114.9214c-2.914,2.776-3.53,6.274-4.423,11.374  l-0.096,0.549l-0.395,2.252c0.681,3.08,2.292,5.113,2.292,5.113s-0.901-6.268,1.496-11.98c0.93-2.222,1.134-3.993,1.039-5.333  c0.094-0.387,0.148-0.791,0.148-1.214C54.6302,115.4214,54.6052,115.1694,54.5692,114.9214 M32.7742,12.8374l-0.525-2.763  l1.206,1.626c0.756-0.966,1.617-1.251,2.224-1.304c0.056,1.343,0.032,2.752-0.146,4.03c1.251,1.239,4.481,3.211,7.381,4.622  c0.29-0.867,0.66-1.513,0.945-1.923c-0.127,0.847-0.165,1.613-0.144,2.302c1.237,0.569,2.369,1.008,3.196,1.201  c0.392,0.091,0.826,0.166,1.274,0.231c-0.077-0.272-0.154-0.546-0.242-0.798c1.341-0.711,2.532-0.382,2.532-0.382  c-1.706-3.613-0.487-4.683,0-11.27c0.174-2.346-0.21-4.467-0.769-6.236h-2.424c-0.109,3.002-0.612,6.903-2.174,10.627  c-0.478,1.139-0.798,2.177-1.021,3.139c-1.197-4.213,0.209-11.365,0.209-11.365l-0.044-0.007c0.028-0.249,0.044-0.502,0.044-0.758  c0-0.57-0.076-1.117-0.206-1.636h-10.641c-0.242,1.034-0.565,2.089-1,3.127c-2.371,5.6541,0,8.388,0,8.388  C32.5482,13.3744,32.6592,13.0944,32.7742,12.8374 M31.3922,86.8604c-0.144,0.324-0.262,0.667-0.352,1.028  c0,0.003-0.001,0.005-0.003,0.008h0.002c-0.125,0.502-0.194,1.032-0.194,1.583c0,1.136,0.291,2.188,0.78,3.064  c0.628-0.083,1.215-0.257,2.423-2.177c0.019-0.028,0.037-0.064,0.056-0.093c0.318-2.829,0.011-5.013,0.011-5.013  s0.754,0.952,1.37,2.507c2.44-4.856,4.981-12.004,4.43-13.495l-1.097-0.36l0.588-1.173c0.531-1.062,0.274-1.517,0.189-1.666  c-0.519-0.92-2.494-1.361-3.365-1.428l-0.68-0.053l-0.187-0.427c-0.113-0.058-0.375-0.16-0.889-0.222  c-0.382,0.062-0.859,0.242-1.457,0.551c-0.998,0.514-1.728,1.07-2.278,1.585c-0.044,1.846-0.261,3.656-0.802,5.073  C29.9372,76.1524,33.6072,79.8084,31.3922,86.8604"/>
<path id="symbol" style="fill:#FFFFFF;" d="M72.5097,34.6201c-0.324-1.221,0.439-0.571,0-1.621c-0.429-1.029-4.351-7.374-5.35-8.195  c0.113,0.983,0.685,1.47-0.554,2.32c-1.437,0.118-1.948-0.352-3.488-1.092c-1.635-0.786-2.628-3.538-2.747-4.331  c-0.121-0.792-0.436-2.292-0.699-2.675c-0.538,0.604-1.733,1.443-3.262,2.321c-1.939,1.117-6.753,1.08-9.756,0.382  c-3.208-0.747-10.857-4.9669-12.371-7.011c0.575,3.035,5.271,7.591,7.672,8.792c1.113,0.554,2.66,1.105,4.358,1.633  c-1.176-0.072-2.32-0.226-3.279-0.45c-3.208-0.747-10.858-4.968-12.372-7.012c0.574,3.036,5.27,7.593,7.672,8.792  c3.649,1.822,11.957,3.591,15.057,4.731c2.07,0.761,8.828,5.541,9.299,8.156c0.106,0.581,0.069,1.089-0.067,1.533  c-1.344,0.305-3.589,0.05-3.873-0.682c-0.324-0.835-0.18-0.522,0.422-1.645c-2.304,0.616-2.732,2.569-3.568,4.745  c-0.13-0.103-0.365-0.169-0.475-0.237c-0.684-0.42-0.684-0.42-0.081-1.544c-2.753,1.303-2.266,4.372-4.435,7.425  c-1.81,0.896-2.83,0.786-3.534,0.113c-0.778-0.746-0.969-2.98-0.844-4.889c-2.409,1.665-4.231,0.448-5.776-0.855  c-1.756-1.48-1.147-3.936-0.937-5.757c-2.176,1.644-1.83,5.527-1.391,6.815c0.465,1.362,1.635,2.441,2.757,3.517  c-1.59,0.285-2.898-0.637-4.051-1.61c-1.755-1.481-1.146-3.937-0.935-5.758c-2.179,1.646-1.83,5.528-1.392,6.815  c1.019,2.991,5.444,4.62,5.29,7.84c0,0.021-0.003,0.04-0.005,0.06c-0.299,0.02-0.473,0.033-0.473,0.033s-3.011,0.598-4.028,0.534  c-2.216-0.135-1.96-0.159-3.248,1.521c-1.21,1.579-2.851,1.364-4.142,2.938c-1.6,1.952-5.872,1.756-5.928,2.975  c-0.086,1.929-1.641,4.344-1.507,4.804c0.134,0.464,0.244,0.384,0.531,0.601c1.195,0.904,0.538,0.299,7.262,3.889  c0,0,0.845-2.305,4.238-4.052c0.853-0.44,1.462-0.631,1.961-0.684c1.612,0.159,1.853,0.712,1.853,0.712s6.237,0.465,4.102,4.729  c2.545,0.837-2.791,13.562-5.41,17.723c-1.729,2.75-2.648,2.602-3.636,2.75c-0.287,1.574,5.722,14.67,9.714,17.831  c3.991,3.16,7.018,8.422,7.853,15.1c1.042-5.94,1.646-10.027,5.678-13.276c6.265-5.051,10.205-11.912,11.229-20.191  c-1.442,0.849-2.526,0.009-3.12-0.839c-4.226-6.037-4.054-13.317-4.475-20.139c-0.337-5.487-0.115-9.74,0.565-11.818l4.092-1.408  c0,0,2.338-0.614,2.338-1.345c0-0.519-3.645-1.345-3.645-1.345s-4.479-0.725-7.91-1.234c1.372-1.367,4.084-4.708,5.046-6.196  c0.131-0.203,0.314-0.46,0.544-0.745c1.716-0.857,3.871-1.276,6.357-0.433c1.867,0.635,1.019,1.502,1.647,1.495  c0.63-0.009,1.337-0.399,1.638-1.495c0.296-1.073,0.512-2.01,0.669-2.837c1.429,0.617,0.726,1.374,1.315,1.366  c0.629-0.007,1.336-0.397,1.638-1.492C74.5597,37.3721,72.9647,36.3381,72.5097,34.6201 M36.6637,60.0771  c-0.895,0.231-2.56,1.24-2.56,1.24s0.179-2.203,1.58-3.024c0.958-0.561,3.678-0.818,3.656,0.447  C39.3217,59.8311,37.3997,59.8861,36.6637,60.0771"/>
</svg>