<?xml version="1.0" encoding="UTF-8"?>
<!-- Generator: Adobe Illustrator 18.0.0, SVG Export Plug-In . SVG Version: 6.00 Build 0)  -->
<!DOCTYPE svg PUBLIC "-//W3C//DTD SVG 1.1//EN" "http://www.w3.org/Graphics/SVG/1.1/DTD/svg11.dtd">
<svg version="1.1" id="Layer_1" xmlns="http://www.w3.org/2000/svg" xmlns:xlink="http://www.w3.org/1999/xlink" x="0px" y="0px" viewBox="0 0 94 158" style="enable-background:new 0 0 94 158;" xml:space="preserve">
<polygon id="point" style="fill:#8B8B8F;" points="47.7547,145.7109 47.0007,146.1469 46.2457,145.7109 14.1897,127.2039   14.1897,136.883 47.0007,155.826 79.8097,136.883 79.8097,127.2039 "/>
<polygon id="banner" style="fill:#1A2C60;" points="2.5388,2.1736 2.5388,117.9806 47.0007,143.6506 91.4617,117.9806   91.4617,2.1736 "/>
<path id="overlay" style="fill:#8B8B8F;" d="M22.8606,23.5906c-0.341-0.214-0.747-0.401-1.194-0.488  c0.592-0.897,1.405-1.952,2.178-2.358c0,0-1.979-1.293-0.456-3.274c0.593-0.77,0.987-1.704,1.21-2.614  c0.641,3.089,0.632,6.02,0.072,8.025c0.492-0.2841,1.021-1.08,1.44-2.946l0.498-0.911l0.579,1.655l0.579-1.655l0.498,0.911  c0.458,2.044,1.05,2.808,1.582,3.016c1.017-1.517,1.714-2.842,1.714-2.842s2.92,5.561,5.561,6.952c0,0-3.615,2.362-0.835,5.977  c0.225,0.292,0.41,0.613,0.604,0.927c-4.697,1.863-8.999,4.687-12.583,8.331c-0.298-2.055,0.152-5.125,1.538-7.712  c-0.587-0.814-1.292-1.629-1.969-1.9839c0,0,2.152-1.408,0.497-3.56C23.1066,27.3946,22.6666,25.0746,22.8606,23.5906   M58.2346,105.1786c2.642,1.389,5.561,6.95,5.561,6.95s0.697-1.324,1.715-2.842c0.531,0.209,1.123,0.972,1.582,3.017l0.498,0.91  l0.578-1.655l0.579,1.655l0.497-0.91c0.42-1.866,0.949-2.663,1.441-2.948c-0.561,2.006-0.568,4.938,0.073,8.027  c0.222-0.91,0.617-1.845,1.21-2.616c1.523-1.979-0.456-3.273-0.456-3.273c0.773-0.406,1.585-1.461,2.177-2.358  c-0.447-0.087-0.853-0.274-1.195-0.487c0.195-1.485-0.245-3.805-1.512-5.452c-1.655-2.15,0.498-3.557,0.498-3.557  c-0.408-0.214-0.824-0.604-1.22-1.052c-3.225,2.111-6.74,3.682-10.435,4.674C59.2966,104.4776,58.2346,105.1786,58.2346,105.1786   M66.8946,92.0746l3.953,1.321c0.037-0.021,0.072-0.044,0.108-0.065c0.361-2.187,0.168-4.165-0.488-5.111  c0,0-1.545,1.893-3.088,0.091c-0.442,1.391-0.75,2.448-0.934,3.103C66.6256,91.8506,66.8206,92.0496,66.8946,92.0746   M54.4446,115.4756c-2.132,2.772,0.64,4.585,0.64,4.585c-2.026,1.065-4.265,5.33-4.265,5.33s-2.239-4.265-4.264-5.33  c0,0,2.771-1.813,0.639-4.585c-2.133-2.772-2.452-7.036-1.491-8.421c0,0,2.142,2.61,3.542-2.569c0.376,0.01,0.751,0.026,1.129,0.026  c0.125,0,0.249-0.008,0.374-0.009l0.071,0.204l0.073-0.208c0.499-0.007,0.998-0.019,1.494-0.046  c1.399,5.221,3.549,2.602,3.549,2.602c0.202,0.289,0.343,0.71,0.427,1.211c0.907-0.945,1.705-2.461,1.705-2.461  s1.287,2.449,2.45,3.061c0,0-1.591,1.042-0.368,2.634c1.226,1.593,1.409,4.043,0.859,4.839c0,0-1.347-1.652-2.143,1.899  l-0.369,0.674l-0.429-1.224l-0.427,1.224l-0.369-0.674c-0.797-3.551-2.143-1.899-2.143-1.899c-0.202-0.291-0.304-0.808-0.292-1.42  C54.7136,115.1096,54.5826,115.2966,54.4446,115.4756 M56.3176,110.9376c0.134-0.326,0.152-0.618,0.105-0.876  C56.4026,110.3456,56.3656,110.6386,56.3176,110.9376 M4.8516,3.7176c0,0-0.856-0.565-1.271-1.544h-1.042v3.772  C3.2516,5.0096,4.0676,4.1306,4.8516,3.7176 M44.5356,6.8486c0,0,2.24,4.264,4.266,5.33c0,0-2.772,1.813-0.641,4.584  c2.134,2.773,2.452,7.037,1.492,8.423c0,0-2.344-2.878-3.73,3.306l-0.641,1.172l-0.746-2.131l-0.746,2.131l-0.639-1.172  c-1.386-6.184-3.73-3.306-3.73-3.306c-0.201-0.29-0.343-0.711-0.427-1.213c-0.907,0.946-1.706,2.463-1.706,2.463  s-1.287-2.451-2.449-3.064c0,0,1.591-1.041,0.367-2.633c-1.226-1.592-1.408-4.043-0.857-4.838c0,0,1.346,1.653,2.143-1.9  l0.368-0.674l0.428,1.225l0.43-1.225l0.367,0.674c0.797,3.553,2.142,1.9,2.142,1.9c0.204,0.291,0.304,0.806,0.294,1.419  c0.122-0.191,0.253-0.377,0.391-0.557c2.132-2.771-0.64-4.584-0.64-4.584C42.2976,11.1126,44.5356,6.8486,44.5356,6.8486   M39.0386,21.3006c-0.134,0.325-0.151,0.618-0.105,0.877C38.9536,21.8926,38.9906,21.5996,39.0386,21.3006 M14.4036,61.5176  c0.092-0.521,0.193-1.04,0.308-1.557c-0.442-0.683-1.075-1.532-1.678-1.848c0,0,1.464-0.956,0.338-2.421  c-1.126-1.461-1.293-3.713-0.787-4.445c0,0,1.237,1.519,1.969-1.744l0.337-0.62l0.394,1.125l0.396-1.125l0.335,0.62  c0.53,2.36,1.321,2.218,1.72,1.959c0.721-1.434,1.535-2.835,2.458-4.184c-0.194-0.544-0.406-1.085-0.656-1.614  c0.615-0.77,1.295-1.465,1.951-1.811c0,0-2.685-1.757-0.619-4.442c2.067-2.688,2.376-6.821,1.446-8.164c0,0-2.272,2.789-3.615-3.205  l-0.621-1.135l-0.724,2.066l-0.446-1.277c1.008-2.668,2.118-3.914,3.154-4.391c-0.598-0.934-1.477-2.123-2.308-2.56  c0,0,1.979-1.293,0.457-3.274c-1.523-1.976-1.749-5.021-1.066-6.009c0,0,1.674,2.054,2.663-2.361l0.458-0.837l0.532,1.522  l0.532-1.522l0.456,0.837c0.59,2.627,1.42,2.959,1.996,2.801c-0.722-2.112-1.748-4.185-3.125-5.975  c-0.396-0.515-0.711-1.015-0.965-1.5c3.253,2.996,6.283,8.767,6.283,8.767s0.704-1.339,1.795-3.062  c0.342,0.465,0.608,1.226-0.131,2.187c-1.25,1.625-1.437,4.125-0.875,4.937c0,0,1.375-1.687,2.188,1.938l0.375,0.687l0.437-1.25  l0.437,1.25l0.376-0.687c0.812-3.625,2.186-1.938,2.186-1.938c0.562-0.812,0.376-3.312-0.874-4.937  c-1.25-1.624,0.375-2.688,0.375-2.688c-0.88-0.464-1.83-1.956-2.261-2.698c0.517-0.663,1.062-1.306,1.619-1.881  c-0.16,1.464,0.01,2.743,0.461,3.395c0,0,2.385-2.925,3.795,3.363l0.65,1.192l0.759-2.169l0.759,2.169l0.65-1.192  c1.41-6.288,3.794-3.363,3.794-3.363c0.737-1.062,0.732-3.788-0.244-6.2729h-23.247c-0.018,0.02-0.037,0.042-0.055,0.061  c-0.003-0.022-0.002-0.04-0.005-0.061h-9.995c0.176,0.544,0.658,0.863,0.658,0.863c-1.015,0.534-2.138,2.669-2.138,2.669  s-0.688-1.306-1.473-2.131c-0.284,0.743-0.712,1.527-1.347,2.352c-0.829,1.077-1.52,2.263-2.107,3.492v19.344  c0.941-0.098,1.675,0.798,1.675,0.798c0.781-1.129,0.858-3.832,0.043-6.505c0.909,0.041,1.935,0.588,2.929,2.152  c1.354-1.858-0.489-3.069-0.489-3.069c1.39-0.73,2.925-3.655,2.925-3.655s1.535,2.925,2.924,3.655c0,0-1.903,1.244-0.439,3.146  c1.464,1.899,1.682,4.825,1.025,5.774c0,0-1.61-1.973-2.56,2.268l-0.439,0.803l-0.511-1.46l-0.512,1.46l-0.437-0.803  c-0.18-0.798-0.383-1.376-0.594-1.79c-1.149,1.489-2.449,2.866-3.703,3.526c0,0,4.742,3.101,1.094,7.843  c-1.217,1.579-2.08,3.443-2.641,5.315c-0.108-0.175-0.205-0.337-0.29-0.483v18.394l0.256,0.7339l0.557-1.019  c1.205-5.373,3.242-2.872,3.242-2.872c0.765-1.105,0.589-4.319-0.878-6.702c1.192,0.402,2.545,2.061,3.584,6.693l1.094,2.007  l1.277-3.647l1.276,3.647l1.095-2.007C14.1586,62.4446,14.2796,61.9646,14.4036,61.5176 M66.5366,94.2796h-2.923h-0.857  l-0.231-0.826l-0.138-0.494h-4.025c-0.027,1.018-0.312,2.252-0.924,3.307c0.108,0.276,0.25,0.538,0.377,0.807  c3.965-0.161,7.797-1.105,11.331-2.794H66.5366z M91.4616,86.7666v-18.563c-1.19,2.91-2.698,1.061-2.698,1.061  c-0.765,1.107-0.59,4.318,0.877,6.701c-1.192-0.402-2.545-2.059-3.583-6.693l-1.094-2.006l-1.278,3.647l-1.276-3.647l-1.095,2.006  c-0.248,1.103-0.513,2.03-0.789,2.82c0.442,0.707,1.139,1.688,1.797,2.034c0,0-1.463,0.956-0.339,2.42  c1.126,1.462,1.294,3.713,0.788,4.445c0,0-1.238-1.519-1.969,1.745l-0.338,0.619l-0.393-1.125l-0.395,1.125l-0.336-0.619  c-0.733-3.264-1.969-1.745-1.969-1.745c-0.508-0.732-0.34-2.983,0.786-4.445c0.31-0.404,0.42-0.767,0.423-1.085  c-1.608,1.393-3.129,0.018-3.54-0.415c0.339-0.633,0.888-0.993,0.888-0.993c-0.766-0.403-1.567-1.381-2.2-2.295  c-2.129,4.777-3.751,8.992-4.933,12.337c0.579-0.409,1.823-0.75,2.644,2.913l0.51,0.932l0.592-1.694l0.592,1.694l0.508-0.932  c0.365-1.622,0.81-2.449,1.246-2.843c0.251,0.814,0.559,1.623,0.931,2.41c-0.615,0.769-1.295,1.465-1.952,1.811  c0,0,1.527,1.001,1.39,2.647c0.382,0.059,0.735,0.246,0.991,0.547c0.548,0.642,0.512,1.618-0.088,2.223  c-1.084,1.08-2.227,2.075-3.414,3.001c-0.36,1.777-0.231,3.429,0.294,4.189c0,0,2.273-2.79,3.616,3.202l0.621,1.137l0.723-2.067  l0.447,1.277c-1.008,2.669-2.118,3.914-3.154,4.393c0.598,0.932,1.477,2.122,2.307,2.558c0,0-1.978,1.294-0.457,3.273  c1.524,1.977,1.75,5.023,1.067,6.011c0,0-1.674-2.054-2.663,2.361l-0.457,0.836l-0.532-1.521l-0.534,1.521l-0.456-0.836  c-0.589-2.629-1.419-2.959-1.995-2.802c0.721,2.112,1.748,4.185,3.125,5.976c0.254,0.33,0.465,0.651,0.656,0.968l16.108-9.3v-14.993  c-0.201-0.166-0.32-0.309-0.32-0.309c-0.781,1.128-0.857,3.833-0.042,6.504c-0.91-0.04-1.935-0.586-2.929-2.152  c-1.354,1.859,0.489,3.069,0.489,3.069c-1.39,0.73-2.925,3.656-2.925,3.656s-1.535-2.926-2.924-3.656c0,0,1.902-1.243,0.439-3.146  c-1.464-1.898-1.681-4.824-1.025-5.773c0,0,1.61,1.973,2.56-2.268l0.439-0.804l0.511,1.462l0.512-1.462l0.437,0.804  c0.18,0.799,0.383,1.377,0.594,1.79c1.15-1.489,2.449-2.866,3.703-3.526c0,0-4.742-3.1-1.093-7.842  C90.4986,88.5386,91.0216,87.6706,91.4616,86.7666 M69.3796,119.0446c0,0,2.753,5.236,5.826,8.321l-11.17,6.449  c-0.016-1.357-0.588-2.468-1.214-3.266c-0.288,0.639-0.641,1.252-1.067,1.808c-0.975,1.266-0.94,2.333-0.61,3.126l-14.144,8.168  l-2.346-1.354c0.078-0.642,0.242-1.172,0.486-1.524c0,0,1.477,1.808,2.819-0.39l-0.303-0.556c-0.807-3.595-2.17-1.923-2.17-1.923  c-0.558-0.804-0.372-3.284,0.867-4.895c1.241-1.612-0.371-2.666-0.371-2.666c1.178-0.62,2.48-3.1,2.48-3.1s1.302,2.48,2.479,3.1  c0,0-1.612,1.054-0.372,2.666c0.884,1.146,1.224,2.725,1.15,3.835l0.25,0.456c0.09,0.408,0.186,0.778,0.285,1.114  c0.136-0.264,0.29-0.52,0.47-0.757c1.241-1.611-0.371-2.665-0.371-2.665c0.803-0.423,1.663-1.71,2.129-2.486  c-0.035-0.05-0.062-0.099-0.101-0.149c-2.168-2.82-2.494-7.157-1.518-8.565c0,0,2.385,2.926,3.794-3.363l0.651-1.192l0.758,2.168  l0.76-2.168l0.65,1.192c1.411,6.289,3.795,3.363,3.795,3.363c0.451,0.652,0.62,1.931,0.461,3.396  c0.557-0.576,1.102-1.218,1.619-1.882c-0.431-0.741-1.381-2.235-2.261-2.697c0,0,1.626-1.064,0.375-2.689  c-1.25-1.625-1.436-4.124-0.874-4.937c0,0,1.375,1.688,2.186-1.938l0.375-0.686l0.438,1.25l0.437-1.25l0.375,0.686  c0.814,3.626,2.188,1.938,2.188,1.938c0.562,0.813,0.375,3.312-0.875,4.937c-0.739,0.961-0.472,1.724-0.131,2.187  C68.6766,120.3836,69.3796,119.0446,69.3796,119.0446 M48.4746,139.3056l-0.012-0.036l-0.155,0.441  C48.3636,139.5836,48.4206,139.4486,48.4746,139.3056 M46.8926,4.9966c0,0,1.026-1.951,2.08-2.823h-4.158  C45.8696,3.0456,46.8926,4.9966,46.8926,4.9966 M21.7136,45.2296c-0.001,0.002-0.001,0.004-0.002,0.007  c0.193-0.244,0.384-0.489,0.584-0.728l-0.072-0.209L21.7136,45.2296z M47.8676,10.6836c0,0,2.463-3.021,3.919,3.473l0.672,1.232  l0.782-2.238l0.784,2.238l0.673-1.232c1.454-6.494,3.918-3.473,3.918-3.473c0.971-1.4,0.69-5.6039-1.334-8.5099h-8.082  C47.1786,5.0796,46.8956,9.2836,47.8676,10.6836"/>
<path id="symbol" style="fill:#FFFFFF;" d="M75.3871,92.3139c0.171,0.202,0.159,0.502-0.027,0.689  c-13.579,13.537-35.19,13.873-49.192,0.766c-14.262-13.352-15.003-35.809-1.654-50.07c13.348-14.26,35.808-15.002,50.07-1.649  l0.512,0.503c0.189,0.184,0.205,0.484,0.033,0.686c-0.172,0.2-0.469,0.236-0.681,0.082c-12.355-8.988-29.548-7.353-39.991,3.802  c-11.441,12.223-10.804,31.475,1.418,42.92c10.718,10.034,27.049,10.957,38.827,2.195  C74.9141,92.0819,75.2071,92.104,75.3871,92.3139 M78.9851,58.597c-9.055,16.549-13.065,30.449-13.725,32.86  c0.165,0.524,0.549,1.448,1.276,1.691h-2.922l-0.37-1.319h-8.47l-0.369,1.319h-2.924c1.033-0.342,1.376-2.063,1.376-2.063  c-13.58-13.925-10.659-33.521-10.659-33.521c0.752-1.0309,0.58-2.318,0.271-3.274c-0.945-0.59-1.474-1.024-1.474-1.024l0.86-7.907  c2.209,4.295,5.732,7.625,13.007,7.68l0.103-0.031l0.009,0.031c2.895,0.009,6.378-0.499,10.604-1.663  C80.5341,47.25,78.9851,58.597,78.9851,58.597 M56.0911,87.63l-7.934-27.525c-3.574,19.683,7.451,28.745,7.451,28.745  C55.7661,88.4389,55.9261,88.032,56.0911,87.63 M57.7291,83.898l-7.677-26.63c-0.421-0.075-0.833-0.163-1.231-0.264  c-0.135,0.551-0.258,1.095-0.373,1.632l8.066,27.974C56.9051,85.6889,57.3111,84.7829,57.7291,83.898 M59.4521,80.4669  l-6.604-22.912c-0.703-0.016-1.385-0.075-2.045-0.168l7.373,25.58C58.5921,82.1159,59.0171,81.282,59.4521,80.4669 M61.2451,77.273  l-5.726-19.86c-0.664,0.0891-1.316,0.136-1.954,0.146l6.353,22.044C60.3541,78.8059,60.7971,78.0299,61.2451,77.273 M63.0941,74.278  l-5.017-17.405c-0.632,0.188-1.256,0.327-1.872,0.435l5.521,19.157C62.1801,75.7169,62.6361,74.987,63.0941,74.278 M64.9931,71.453  l-4.459-15.467c-0.323,0.121-0.647,0.2451-0.972,0.375c-0.279,0.11-0.555,0.21-0.83,0.303l4.858,16.854  C64.0591,72.808,64.5271,72.119,64.9931,71.453 M66.9341,68.779l-3.934-13.648c-0.596,0.188-1.203,0.395-1.82,0.617l4.32,14.986  C65.9851,70.058,66.4631,69.4019,66.9341,68.779 M68.9141,66.239l-3.406-11.82c-0.601,0.15-1.219,0.317-1.851,0.509l3.796,13.169  C67.9521,67.446,68.4401,66.828,68.9141,66.239 M70.9321,63.8269l-2.863-9.931c-0.606,0.094-1.238,0.216-1.892,0.365l3.267,11.33  C69.9611,64.963,70.4591,64.3739,70.9321,63.8269 M72.9861,61.539l-2.273-7.878c-0.611,0.006-1.264,0.053-1.956,0.139l2.714,9.413  C72.0181,62.5899,72.5261,62.031,72.9861,61.539 M71.4321,53.6709l2.102,7.287c1.251-1.315,2.015-2.019,2.015-2.019  C76.6511,55.451,74.8581,53.825,71.4321,53.6709"/>
</svg>